<?xml version="1.0" encoding="utf-8" standalone="no"?>
<!DOCTYPE svg PUBLIC "-//W3C//DTD SVG 1.1//EN"
  "http://www.w3.org/Graphics/SVG/1.1/DTD/svg11.dtd">
<svg xmlns:xlink="http://www.w3.org/1999/xlink" width="703.725pt" height="267.95625pt" viewBox="0 0 703.725 267.95625" xmlns="http://www.w3.org/2000/svg" version="1.1">
 <metadata>
  <rdf:RDF xmlns:dc="http://purl.org/dc/elements/1.1/" xmlns:cc="http://creativecommons.org/ns#" xmlns:rdf="http://www.w3.org/1999/02/22-rdf-syntax-ns#">
   <cc:Work>
    <dc:type rdf:resource="http://purl.org/dc/dcmitype/StillImage"/>
    <dc:date>2025-07-28T07:28:08.005899</dc:date>
    <dc:format>image/svg+xml</dc:format>
    <dc:creator>
     <cc:Agent>
      <dc:title>Matplotlib v3.10.3, https://matplotlib.org/</dc:title>
     </cc:Agent>
    </dc:creator>
   </cc:Work>
  </rdf:RDF>
 </metadata>
 <defs>
  <style type="text/css">*{stroke-linejoin: round; stroke-linecap: butt}</style>
 </defs>
 <g id="figure_1">
  <g id="patch_1">
   <path d="M 0 267.95625 
L 703.725 267.95625 
L 703.725 0 
L 0 0 
z
" style="fill: #ffffff"/>
  </g>
  <g id="axes_1">
   <g id="patch_2">
    <path d="M 26.925 244.078125 
L 696.525 244.078125 
L 696.525 22.318125 
L 26.925 22.318125 
z
" style="fill: #ffffff"/>
   </g>
   <g id="matplotlib.axis_1">
    <g id="xtick_1">
     <g id="line2d_1">
      <defs>
       <path id="mcd83467d9d" d="M 0 0 
L 0 3.5 
" style="stroke: #000000; stroke-width: 0.8"/>
      </defs>
      <g>
       <use xlink:href="#mcd83467d9d" x="57.349813" y="244.078125" style="stroke: #000000; stroke-width: 0.8"/>
      </g>
     </g>
     <g id="text_1">
      <!-- 2020-01 -->
      <g transform="translate(36.458407 258.676562) scale(0.1 -0.1)">
       <defs>
        <path id="DejaVuSans-32" d="M 1228 531 
L 3431 531 
L 3431 0 
L 469 0 
L 469 531 
Q 828 903 1448 1529 
Q 2069 2156 2228 2338 
Q 2531 2678 2651 2914 
Q 2772 3150 2772 3378 
Q 2772 3750 2511 3984 
Q 2250 4219 1831 4219 
Q 1534 4219 1204 4116 
Q 875 4013 500 3803 
L 500 4441 
Q 881 4594 1212 4672 
Q 1544 4750 1819 4750 
Q 2544 4750 2975 4387 
Q 3406 4025 3406 3419 
Q 3406 3131 3298 2873 
Q 3191 2616 2906 2266 
Q 2828 2175 2409 1742 
Q 1991 1309 1228 531 
z
" transform="scale(0.015625)"/>
        <path id="DejaVuSans-30" d="M 2034 4250 
Q 1547 4250 1301 3770 
Q 1056 3291 1056 2328 
Q 1056 1369 1301 889 
Q 1547 409 2034 409 
Q 2525 409 2770 889 
Q 3016 1369 3016 2328 
Q 3016 3291 2770 3770 
Q 2525 4250 2034 4250 
z
M 2034 4750 
Q 2819 4750 3233 4129 
Q 3647 3509 3647 2328 
Q 3647 1150 3233 529 
Q 2819 -91 2034 -91 
Q 1250 -91 836 529 
Q 422 1150 422 2328 
Q 422 3509 836 4129 
Q 1250 4750 2034 4750 
z
" transform="scale(0.015625)"/>
        <path id="DejaVuSans-2d" d="M 313 2009 
L 1997 2009 
L 1997 1497 
L 313 1497 
L 313 2009 
z
" transform="scale(0.015625)"/>
        <path id="DejaVuSans-31" d="M 794 531 
L 1825 531 
L 1825 4091 
L 703 3866 
L 703 4441 
L 1819 4666 
L 2450 4666 
L 2450 531 
L 3481 531 
L 3481 0 
L 794 0 
L 794 531 
z
" transform="scale(0.015625)"/>
       </defs>
       <use xlink:href="#DejaVuSans-32"/>
       <use xlink:href="#DejaVuSans-30" transform="translate(63.623047 0)"/>
       <use xlink:href="#DejaVuSans-32" transform="translate(127.246094 0)"/>
       <use xlink:href="#DejaVuSans-30" transform="translate(190.869141 0)"/>
       <use xlink:href="#DejaVuSans-2d" transform="translate(254.492188 0)"/>
       <use xlink:href="#DejaVuSans-30" transform="translate(290.576172 0)"/>
       <use xlink:href="#DejaVuSans-31" transform="translate(354.199219 0)"/>
      </g>
     </g>
    </g>
    <g id="xtick_2">
     <g id="line2d_2">
      <g>
       <use xlink:href="#mcd83467d9d" x="157.143063" y="244.078125" style="stroke: #000000; stroke-width: 0.8"/>
      </g>
     </g>
     <g id="text_2">
      <!-- 2020-03 -->
      <g transform="translate(136.251657 258.676562) scale(0.1 -0.1)">
       <defs>
        <path id="DejaVuSans-33" d="M 2597 2516 
Q 3050 2419 3304 2112 
Q 3559 1806 3559 1356 
Q 3559 666 3084 287 
Q 2609 -91 1734 -91 
Q 1441 -91 1130 -33 
Q 819 25 488 141 
L 488 750 
Q 750 597 1062 519 
Q 1375 441 1716 441 
Q 2309 441 2620 675 
Q 2931 909 2931 1356 
Q 2931 1769 2642 2001 
Q 2353 2234 1838 2234 
L 1294 2234 
L 1294 2753 
L 1863 2753 
Q 2328 2753 2575 2939 
Q 2822 3125 2822 3475 
Q 2822 3834 2567 4026 
Q 2313 4219 1838 4219 
Q 1578 4219 1281 4162 
Q 984 4106 628 3988 
L 628 4550 
Q 988 4650 1302 4700 
Q 1616 4750 1894 4750 
Q 2613 4750 3031 4423 
Q 3450 4097 3450 3541 
Q 3450 3153 3228 2886 
Q 3006 2619 2597 2516 
z
" transform="scale(0.015625)"/>
       </defs>
       <use xlink:href="#DejaVuSans-32"/>
       <use xlink:href="#DejaVuSans-30" transform="translate(63.623047 0)"/>
       <use xlink:href="#DejaVuSans-32" transform="translate(127.246094 0)"/>
       <use xlink:href="#DejaVuSans-30" transform="translate(190.869141 0)"/>
       <use xlink:href="#DejaVuSans-2d" transform="translate(254.492188 0)"/>
       <use xlink:href="#DejaVuSans-30" transform="translate(290.576172 0)"/>
       <use xlink:href="#DejaVuSans-33" transform="translate(354.199219 0)"/>
      </g>
     </g>
    </g>
    <g id="xtick_3">
     <g id="line2d_3">
      <g>
       <use xlink:href="#mcd83467d9d" x="258.599534" y="244.078125" style="stroke: #000000; stroke-width: 0.8"/>
      </g>
     </g>
     <g id="text_3">
      <!-- 2020-05 -->
      <g transform="translate(237.708127 258.676562) scale(0.1 -0.1)">
       <defs>
        <path id="DejaVuSans-35" d="M 691 4666 
L 3169 4666 
L 3169 4134 
L 1269 4134 
L 1269 2991 
Q 1406 3038 1543 3061 
Q 1681 3084 1819 3084 
Q 2600 3084 3056 2656 
Q 3513 2228 3513 1497 
Q 3513 744 3044 326 
Q 2575 -91 1722 -91 
Q 1428 -91 1123 -41 
Q 819 9 494 109 
L 494 744 
Q 775 591 1075 516 
Q 1375 441 1709 441 
Q 2250 441 2565 725 
Q 2881 1009 2881 1497 
Q 2881 1984 2565 2268 
Q 2250 2553 1709 2553 
Q 1456 2553 1204 2497 
Q 953 2441 691 2322 
L 691 4666 
z
" transform="scale(0.015625)"/>
       </defs>
       <use xlink:href="#DejaVuSans-32"/>
       <use xlink:href="#DejaVuSans-30" transform="translate(63.623047 0)"/>
       <use xlink:href="#DejaVuSans-32" transform="translate(127.246094 0)"/>
       <use xlink:href="#DejaVuSans-30" transform="translate(190.869141 0)"/>
       <use xlink:href="#DejaVuSans-2d" transform="translate(254.492188 0)"/>
       <use xlink:href="#DejaVuSans-30" transform="translate(290.576172 0)"/>
       <use xlink:href="#DejaVuSans-35" transform="translate(354.199219 0)"/>
      </g>
     </g>
    </g>
    <g id="xtick_4">
     <g id="line2d_4">
      <g>
       <use xlink:href="#mcd83467d9d" x="360.056004" y="244.078125" style="stroke: #000000; stroke-width: 0.8"/>
      </g>
     </g>
     <g id="text_4">
      <!-- 2020-07 -->
      <g transform="translate(339.164598 258.676562) scale(0.1 -0.1)">
       <defs>
        <path id="DejaVuSans-37" d="M 525 4666 
L 3525 4666 
L 3525 4397 
L 1831 0 
L 1172 0 
L 2766 4134 
L 525 4134 
L 525 4666 
z
" transform="scale(0.015625)"/>
       </defs>
       <use xlink:href="#DejaVuSans-32"/>
       <use xlink:href="#DejaVuSans-30" transform="translate(63.623047 0)"/>
       <use xlink:href="#DejaVuSans-32" transform="translate(127.246094 0)"/>
       <use xlink:href="#DejaVuSans-30" transform="translate(190.869141 0)"/>
       <use xlink:href="#DejaVuSans-2d" transform="translate(254.492188 0)"/>
       <use xlink:href="#DejaVuSans-30" transform="translate(290.576172 0)"/>
       <use xlink:href="#DejaVuSans-37" transform="translate(354.199219 0)"/>
      </g>
     </g>
    </g>
    <g id="xtick_5">
     <g id="line2d_5">
      <g>
       <use xlink:href="#mcd83467d9d" x="463.175695" y="244.078125" style="stroke: #000000; stroke-width: 0.8"/>
      </g>
     </g>
     <g id="text_5">
      <!-- 2020-09 -->
      <g transform="translate(442.284289 258.676562) scale(0.1 -0.1)">
       <defs>
        <path id="DejaVuSans-39" d="M 703 97 
L 703 672 
Q 941 559 1184 500 
Q 1428 441 1663 441 
Q 2288 441 2617 861 
Q 2947 1281 2994 2138 
Q 2813 1869 2534 1725 
Q 2256 1581 1919 1581 
Q 1219 1581 811 2004 
Q 403 2428 403 3163 
Q 403 3881 828 4315 
Q 1253 4750 1959 4750 
Q 2769 4750 3195 4129 
Q 3622 3509 3622 2328 
Q 3622 1225 3098 567 
Q 2575 -91 1691 -91 
Q 1453 -91 1209 -44 
Q 966 3 703 97 
z
M 1959 2075 
Q 2384 2075 2632 2365 
Q 2881 2656 2881 3163 
Q 2881 3666 2632 3958 
Q 2384 4250 1959 4250 
Q 1534 4250 1286 3958 
Q 1038 3666 1038 3163 
Q 1038 2656 1286 2365 
Q 1534 2075 1959 2075 
z
" transform="scale(0.015625)"/>
       </defs>
       <use xlink:href="#DejaVuSans-32"/>
       <use xlink:href="#DejaVuSans-30" transform="translate(63.623047 0)"/>
       <use xlink:href="#DejaVuSans-32" transform="translate(127.246094 0)"/>
       <use xlink:href="#DejaVuSans-30" transform="translate(190.869141 0)"/>
       <use xlink:href="#DejaVuSans-2d" transform="translate(254.492188 0)"/>
       <use xlink:href="#DejaVuSans-30" transform="translate(290.576172 0)"/>
       <use xlink:href="#DejaVuSans-39" transform="translate(354.199219 0)"/>
      </g>
     </g>
    </g>
    <g id="xtick_6">
     <g id="line2d_6">
      <g>
       <use xlink:href="#mcd83467d9d" x="564.632166" y="244.078125" style="stroke: #000000; stroke-width: 0.8"/>
      </g>
     </g>
     <g id="text_6">
      <!-- 2020-11 -->
      <g transform="translate(543.74076 258.676562) scale(0.1 -0.1)">
       <use xlink:href="#DejaVuSans-32"/>
       <use xlink:href="#DejaVuSans-30" transform="translate(63.623047 0)"/>
       <use xlink:href="#DejaVuSans-32" transform="translate(127.246094 0)"/>
       <use xlink:href="#DejaVuSans-30" transform="translate(190.869141 0)"/>
       <use xlink:href="#DejaVuSans-2d" transform="translate(254.492188 0)"/>
       <use xlink:href="#DejaVuSans-31" transform="translate(290.576172 0)"/>
       <use xlink:href="#DejaVuSans-31" transform="translate(354.199219 0)"/>
      </g>
     </g>
    </g>
    <g id="xtick_7">
     <g id="line2d_7">
      <g>
       <use xlink:href="#mcd83467d9d" x="666.088636" y="244.078125" style="stroke: #000000; stroke-width: 0.8"/>
      </g>
     </g>
     <g id="text_7">
      <!-- 2021-01 -->
      <g transform="translate(645.19723 258.676562) scale(0.1 -0.1)">
       <use xlink:href="#DejaVuSans-32"/>
       <use xlink:href="#DejaVuSans-30" transform="translate(63.623047 0)"/>
       <use xlink:href="#DejaVuSans-32" transform="translate(127.246094 0)"/>
       <use xlink:href="#DejaVuSans-31" transform="translate(190.869141 0)"/>
       <use xlink:href="#DejaVuSans-2d" transform="translate(254.492188 0)"/>
       <use xlink:href="#DejaVuSans-30" transform="translate(290.576172 0)"/>
       <use xlink:href="#DejaVuSans-31" transform="translate(354.199219 0)"/>
      </g>
     </g>
    </g>
   </g>
   <g id="matplotlib.axis_2">
    <g id="ytick_1">
     <g id="line2d_8">
      <defs>
       <path id="mce7a8ef4cd" d="M 0 0 
L -3.5 0 
" style="stroke: #000000; stroke-width: 0.8"/>
      </defs>
      <g>
       <use xlink:href="#mce7a8ef4cd" x="26.925" y="215.104691" style="stroke: #000000; stroke-width: 0.8"/>
      </g>
     </g>
     <g id="text_8">
      <!-- 0 -->
      <g transform="translate(13.5625 218.903909) scale(0.1 -0.1)">
       <use xlink:href="#DejaVuSans-30"/>
      </g>
     </g>
    </g>
    <g id="ytick_2">
     <g id="line2d_9">
      <g>
       <use xlink:href="#mce7a8ef4cd" x="26.925" y="178.129534" style="stroke: #000000; stroke-width: 0.8"/>
      </g>
     </g>
     <g id="text_9">
      <!-- 5 -->
      <g transform="translate(13.5625 181.928753) scale(0.1 -0.1)">
       <use xlink:href="#DejaVuSans-35"/>
      </g>
     </g>
    </g>
    <g id="ytick_3">
     <g id="line2d_10">
      <g>
       <use xlink:href="#mce7a8ef4cd" x="26.925" y="141.154378" style="stroke: #000000; stroke-width: 0.8"/>
      </g>
     </g>
     <g id="text_10">
      <!-- 10 -->
      <g transform="translate(7.2 144.953597) scale(0.1 -0.1)">
       <use xlink:href="#DejaVuSans-31"/>
       <use xlink:href="#DejaVuSans-30" transform="translate(63.623047 0)"/>
      </g>
     </g>
    </g>
    <g id="ytick_4">
     <g id="line2d_11">
      <g>
       <use xlink:href="#mce7a8ef4cd" x="26.925" y="104.179222" style="stroke: #000000; stroke-width: 0.8"/>
      </g>
     </g>
     <g id="text_11">
      <!-- 15 -->
      <g transform="translate(7.2 107.978441) scale(0.1 -0.1)">
       <use xlink:href="#DejaVuSans-31"/>
       <use xlink:href="#DejaVuSans-35" transform="translate(63.623047 0)"/>
      </g>
     </g>
    </g>
    <g id="ytick_5">
     <g id="line2d_12">
      <g>
       <use xlink:href="#mce7a8ef4cd" x="26.925" y="67.204066" style="stroke: #000000; stroke-width: 0.8"/>
      </g>
     </g>
     <g id="text_12">
      <!-- 20 -->
      <g transform="translate(7.2 71.003285) scale(0.1 -0.1)">
       <use xlink:href="#DejaVuSans-32"/>
       <use xlink:href="#DejaVuSans-30" transform="translate(63.623047 0)"/>
      </g>
     </g>
    </g>
    <g id="ytick_6">
     <g id="line2d_13">
      <g>
       <use xlink:href="#mce7a8ef4cd" x="26.925" y="30.22891" style="stroke: #000000; stroke-width: 0.8"/>
      </g>
     </g>
     <g id="text_13">
      <!-- 25 -->
      <g transform="translate(7.2 34.028129) scale(0.1 -0.1)">
       <use xlink:href="#DejaVuSans-32"/>
       <use xlink:href="#DejaVuSans-35" transform="translate(63.623047 0)"/>
      </g>
     </g>
    </g>
   </g>
   <g id="line2d_14">
    <path d="M 57.361364 233.998125 
L 58.574129 220.322965 
L 59.729143 209.727071 
L 60.814857 201.715543 
L 61.84282 195.691894 
L 62.813032 191.24974 
L 63.737043 188.012786 
L 64.603304 185.750916 
L 65.411814 184.226058 
L 66.174124 183.233358 
L 66.913333 182.618752 
L 67.652543 182.285219 
L 68.449502 182.170437 
L 69.431265 182.267647 
L 69.927921 182.25881 
L 70.747981 181.450982 
L 72.030047 179.915072 
L 72.26105 179.777941 
L 72.468953 179.381312 
L 72.919408 178.558411 
L 73.439165 177.984288 
L 73.82032 176.995856 
L 74.66348 174.087291 
L 75.333389 171.33278 
L 75.899346 169.673748 
L 76.488403 168.520499 
L 78.163174 166.458576 
L 79.017885 164.3796 
L 79.040985 164.391687 
L 79.271988 164.724741 
L 79.780194 165.251956 
L 80.115149 165.492896 
L 80.403902 165.608111 
L 80.634905 166.11013 
L 81.408765 168.539252 
L 81.997822 170.703915 
L 82.390527 172.227998 
L 82.875633 173.841314 
L 83.45314 174.872112 
L 83.926696 175.763802 
L 84.631255 177.698276 
L 85.85557 178.809077 
L 86.537029 180.261657 
L 87.079886 181.936889 
L 87.541892 184.240203 
L 88.327301 190.194306 
L 89.447665 200.014492 
L 90.63733 209.266281 
L 91.595992 214.587284 
L 92.404502 218.107855 
L 93.316964 220.302831 
L 94.379577 221.512935 
L 95.257388 222.450443 
L 95.673193 223.095607 
L 95.996597 222.794896 
L 96.458603 222.413907 
L 96.851308 222.230342 
L 97.255563 222.064335 
L 97.417265 221.656429 
L 97.971672 219.638002 
L 98.260426 217.989195 
L 100.270151 206.569347 
L 100.928509 202.685692 
L 101.633068 197.184208 
L 103.585042 180.269772 
L 104.116349 176.544601 
L 104.844008 170.987788 
L 105.282914 168.972169 
L 105.675619 167.418479 
L 107.142487 160.821733 
L 107.893246 158.168676 
L 108.574705 156.888788 
L 108.805708 156.794173 
L 109.025161 156.758747 
L 109.313914 156.651328 
L 109.76437 156.823949 
L 110.168625 157.362012 
L 110.492029 158.155503 
L 110.954035 160.157216 
L 111.531542 163.513733 
L 112.17835 166.827269 
L 112.409353 167.312799 
L 112.825158 167.902108 
L 113.402665 168.943488 
L 114.014823 169.633552 
L 114.523029 169.658758 
L 115.100537 169.673853 
L 115.597193 170.01214 
L 117.110262 173.873196 
L 117.988073 177.293951 
L 118.750382 180.746898 
L 119.478041 183.86653 
L 119.824546 184.830962 
L 120.090199 185.134818 
L 120.529105 185.177889 
L 123.093237 188.896847 
L 123.185638 189.083066 
L 123.254939 189.039047 
L 123.716945 188.488799 
L 124.317552 187.46163 
L 124.791108 185.275753 
L 127.158888 173.686035 
L 127.747945 171.604729 
L 128.186851 169.883249 
L 128.695057 168.070249 
L 129.226364 167.193468 
L 129.434266 167.13758 
L 129.699919 167.452966 
L 129.907822 167.555755 
L 130.127275 167.474214 
L 131.062837 167.019899 
L 131.940648 166.67851 
L 132.194751 166.937419 
L 133.003261 168.407316 
L 133.453716 169.773091 
L 133.800221 170.56432 
L 134.239126 170.850712 
L 134.56253 171.053797 
L 134.758883 170.863436 
L 135.093837 170.297302 
L 135.578943 169.253244 
L 135.994748 167.497084 
L 136.468304 166.050058 
L 136.849459 165.25844 
L 137.323015 164.507055 
L 137.426966 164.437472 
L 137.923622 163.239554 
L 139.33274 159.492322 
L 139.644594 159.121934 
L 140.441554 158.773763 
L 140.984411 158.750095 
L 141.423316 158.789794 
L 141.68897 159.191253 
L 142.127875 160.288206 
L 143.444592 163.890041 
L 144.14915 166.969525 
L 144.819059 170.240796 
L 145.246414 172.497699 
L 145.74307 174.902041 
L 146.343678 176.778981 
L 146.736383 177.48864 
L 147.163738 177.587468 
L 147.683495 177.467594 
L 147.914498 176.851918 
L 148.272552 175.999538 
L 148.711458 175.389629 
L 149.081062 175.067193 
L 149.254314 174.959457 
L 149.519968 174.613533 
L 149.889572 173.886587 
L 150.374678 173.007391 
L 150.778933 173.127093 
L 151.194739 173.165848 
L 151.726045 172.825414 
L 151.968598 172.608012 
L 151.991699 172.646488 
L 152.222702 173.382263 
L 152.730908 174.947554 
L 153.123613 175.913227 
L 153.72422 178.166111 
L 154.163126 179.234455 
L 154.46343 179.446441 
L 154.867685 179.624349 
L 155.098688 180.046616 
L 156.369203 182.284085 
L 157.154613 183.158648 
L 157.501118 183.560448 
L 158.078625 183.743686 
L 158.332728 183.681093 
L 158.667682 183.562641 
L 158.921785 183.617639 
L 159.245189 183.153038 
L 159.707195 182.385515 
L 159.984399 182.203465 
L 160.758258 182.341728 
L 161.023912 182.478245 
L 161.566769 182.220797 
L 161.68227 182.059499 
L 162.687133 179.778688 
L 163.022087 179.692894 
L 164.038499 180.200025 
L 164.361904 179.837445 
L 164.708408 179.105548 
L 165.470717 177.460039 
L 165.898073 177.0337 
L 165.990474 176.932947 
L 166.567981 176.176892 
L 166.891385 175.661567 
L 167.145488 175.422446 
L 167.526643 175.358171 
L 167.769196 175.259713 
L 168.208102 174.540991 
L 168.670107 173.91102 
L 169.085913 173.852007 
L 169.316916 173.568823 
L 169.917523 172.319505 
L 170.425729 171.16373 
L 170.46038 171.188316 
L 170.783784 171.332709 
L 171.014787 171.187778 
L 171.23424 170.773407 
L 172.08895 168.494268 
L 172.239102 168.155805 
L 172.83971 166.399197 
L 173.255515 164.346593 
L 173.69442 162.544505 
L 173.705971 162.549583 
L 174.47983 162.849279 
L 175.219039 162.121037 
L 175.24214 162.14325 
L 175.530893 162.299025 
L 176.258553 162.370944 
L 176.709008 162.150872 
L 176.951561 162.010562 
L 177.217215 161.080476 
L 178.175877 157.25206 
L 178.672533 155.263326 
L 179.22694 153.340752 
L 180.451255 150.492169 
L 180.682258 150.3753 
L 181.144264 150.184897 
L 181.525418 149.976037 
L 181.848823 150.255467 
L 182.183777 150.743237 
L 182.43788 151.160115 
L 182.888336 151.694112 
L 183.084688 151.637173 
L 183.419642 151.600739 
L 183.592894 151.935678 
L 184.101101 153.493299 
L 184.990462 156.485057 
L 185.221465 157.309673 
L 185.62572 159.807389 
L 186.145476 162.590132 
L 186.480431 163.243701 
L 186.653683 163.55379 
L 186.965537 164.83629 
L 188.120551 170.02134 
L 188.744259 171.197503 
L 189.240915 174.429707 
L 189.749121 176.996453 
L 191.920549 184.784482 
L 192.243953 185.439289 
L 192.775259 185.738434 
L 193.422067 187.235137 
L 193.745471 187.969519 
L 194.219027 188.448924 
L 194.357629 188.574284 
L 194.634833 189.21235 
L 195.397142 191.260869 
L 195.454893 191.194822 
L 195.963099 190.625008 
L 196.679208 190.482119 
L 196.81781 190.616424 
L 197.095013 191.264376 
L 197.63787 192.629979 
L 198.40018 193.903259 
L 198.804435 195.019331 
L 199.335741 195.394938 
L 199.693796 195.480103 
L 200.109601 195.837991 
L 200.213552 195.83369 
L 200.236653 195.802213 
L 200.467656 195.195259 
L 202.107776 190.542612 
L 202.37343 190.406502 
L 202.604432 190.193306 
L 202.927836 189.477529 
L 203.320541 187.755268 
L 203.516894 187.296737 
L 203.539994 187.307048 
L 203.874948 187.732034 
L 204.267653 188.255602 
L 204.475556 188.130697 
L 204.741209 187.598 
L 205.110814 186.948776 
L 205.122364 186.953717 
L 205.260966 187.164801 
L 206.081026 189.159962 
L 206.138777 189.127958 
L 206.40443 188.812332 
L 206.820235 188.344467 
L 206.947287 188.45048 
L 207.22449 188.629404 
L 207.628745 188.546269 
L 207.871298 188.275324 
L 208.437255 187.330454 
L 208.633608 186.910353 
L 208.679809 186.948919 
L 209.107164 187.133827 
L 209.268866 186.994928 
L 209.453668 186.571229 
L 210.192877 184.582544 
L 210.770385 183.636807 
L 211.16309 182.440134 
L 212.341204 178.108954 
L 212.733909 176.20672 
L 213.265216 172.664945 
L 214.651233 162.234768 
L 215.21719 157.656619 
L 216.0257 153.467268 
L 217.065214 145.518587 
L 217.492569 142.305007 
L 218.751535 134.016034 
L 219.352142 131.269701 
L 219.779498 128.889533 
L 220.183753 127.213627 
L 220.357005 127.178912 
L 220.576457 127.398549 
L 221.107764 128.113784 
L 221.58132 128.450949 
L 221.916274 129.347406 
L 222.886486 132.49859 
L 224.018401 135.089995 
L 224.630558 135.39657 
L 225.173415 135.261928 
L 225.184965 135.294334 
L 225.485269 136.559451 
L 225.889524 137.78014 
L 226.143627 138.110518 
L 227.656696 139.337337 
L 227.94545 139.796631 
L 228.268854 140.739955 
L 228.592258 141.470341 
L 229.054264 141.616408 
L 229.446969 141.815 
L 229.689522 142.293262 
L 230.255479 143.570658 
L 230.463381 143.500267 
L 230.752135 143.129448 
L 231.017788 142.929231 
L 231.248791 143.084374 
L 232.103502 143.824998 
L 232.519307 143.854004 
L 233.027513 143.691377 
L 233.316267 143.737429 
L 233.501069 144.230791 
L 233.58192 144.335373 
L 233.639671 144.291727 
L 234.043926 143.787005 
L 235.17584 142.415307 
L 235.395293 142.487129 
L 235.718697 142.29005 
L 235.9266 141.876868 
L 236.989213 139.438924 
L 237.982525 135.6998 
L 238.31748 135.134334 
L 238.560033 135.007393 
L 238.767935 134.839244 
L 239.356993 134.068985 
L 239.9345 133.410998 
L 240.246354 133.315406 
L 240.465807 132.859259 
L 241.008663 131.006427 
L 241.794073 127.529285 
L 241.840274 127.561521 
L 242.001976 127.946587 
L 242.198328 128.215184 
L 242.810486 128.036222 
L 243.561245 128.907159 
L 244.173403 129.683888 
L 244.646959 130.260817 
L 244.877962 130.917725 
L 245.201366 131.684413 
L 245.478569 131.553846 
L 245.605621 131.281502 
L 246.044526 130.347134 
L 246.194678 130.391082 
L 246.518082 130.870256 
L 246.749085 131.190348 
L 246.760635 131.184913 
L 246.887687 130.958435 
L 247.072489 130.186297 
L 247.649997 127.070782 
L 248.008051 126.096449 
L 248.677959 124.795589 
L 249.313217 122.092353 
L 249.567321 121.715403 
L 249.763673 121.742174 
L 250.156378 122.010963 
L 250.191028 121.964327 
L 250.433581 121.359953 
L 250.930238 120.121612 
L 251.519295 119.573165 
L 251.750298 119.72384 
L 252.015951 119.934516 
L 252.189203 119.726477 
L 252.789811 118.971308 
L 253.228716 118.866155 
L 253.51747 119.143663 
L 254.372181 120.165896 
L 254.880387 120.760929 
L 255.169141 121.878268 
L 255.88525 124.215959 
L 256.774611 126.965329 
L 257.617771 130.64672 
L 258.368531 132.891432 
L 259.10774 135.632229 
L 260.470657 138.750511 
L 261.129015 139.163742 
L 261.383118 139.267371 
L 261.671872 139.659143 
L 261.925975 140.641696 
L 262.28403 141.861836 
L 262.838437 142.879992 
L 263.288892 143.907019 
L 263.300442 143.901629 
L 263.404394 143.657268 
L 263.831749 141.550498 
L 264.293755 139.322858 
L 264.547858 138.88761 
L 264.882812 138.741804 
L 265.183116 138.565237 
L 265.737523 137.067542 
L 266.107128 136.365111 
L 266.407431 136.142985 
L 266.869437 136.032759 
L 267.215942 135.80357 
L 267.423844 135.837044 
L 267.86275 136.14137 
L 268.059102 136.08206 
L 268.70591 135.473284 
L 269.930226 133.728888 
L 270.230529 133.72378 
L 270.473082 133.732081 
L 270.704085 133.953663 
L 270.935088 134.039036 
L 271.11989 133.820553 
L 271.685847 132.970315 
L 271.708948 132.987601 
L 271.986151 133.30007 
L 272.367306 134.406615 
L 272.71381 134.988675 
L 273.187366 135.209458 
L 273.314418 135.338217 
L 273.48767 135.691208 
L 273.707123 136.39608 
L 274.353931 138.385045 
L 274.550283 138.411041 
L 274.966089 138.332945 
L 275.150891 138.78644 
L 276.005602 141.082384 
L 276.213504 141.134913 
L 276.548458 141.193599 
L 276.975814 141.99834 
L 278.442682 145.322673 
L 278.523533 145.265784 
L 278.719886 145.257777 
L 279.332043 145.522903 
L 280.036602 146.44 
L 280.544808 147.121524 
L 280.879763 147.224008 
L 281.318668 147.089366 
L 282.104078 147.329837 
L 282.219579 147.081279 
L 282.670035 145.776994 
L 282.912588 145.674788 
L 283.155141 145.633545 
L 283.363044 145.062303 
L 283.628697 143.521099 
L 284.67976 136.363451 
L 285.407419 132.552832 
L 287.116841 119.732776 
L 288.398907 109.536359 
L 288.68766 108.982046 
L 288.930213 108.934706 
L 289.115016 108.85668 
L 289.42687 108.468402 
L 289.715623 108.28907 
L 291.632947 108.724403 
L 293.238417 105.720527 
L 293.330819 105.682986 
L 293.377019 105.737131 
L 294.081578 106.063175 
L 294.335681 106.058207 
L 295.236592 107.030874 
L 295.525346 106.89135 
L 295.987352 106.534959 
L 295.998902 106.54654 
L 296.218355 106.898004 
L 297.200117 108.849684 
L 298.077928 110.28764 
L 298.955739 113.186674 
L 299.614097 114.72532 
L 300.295556 117.128606 
L 300.59586 117.441379 
L 300.849963 117.185885 
L 301.184917 116.802187 
L 301.392819 116.885878 
L 301.658473 117.181499 
L 301.877926 117.497275 
L 301.912576 117.422093 
L 303.113791 113.693272 
L 303.448745 113.561586 
L 303.621997 113.487453 
L 303.876101 113.17235 
L 304.060903 112.82157 
L 304.430508 112.257259 
L 304.63841 112.277652 
L 304.846313 112.278183 
L 305.135066 111.717347 
L 305.470021 110.715224 
L 306.047528 108.878189 
L 306.359382 108.391958 
L 306.752087 108.357821 
L 307.00619 107.342994 
L 307.82625 104.429586 
L 308.242055 103.499162 
L 308.63476 103.289045 
L 309.004365 103.548444 
L 309.339319 103.529351 
L 309.697373 103.409096 
L 311.060291 104.970076 
L 311.429895 105.067356 
L 311.8457 105.663712 
L 312.296156 106.412207 
L 312.61956 106.723247 
L 312.954514 107.399699 
L 313.797675 109.347663 
L 313.936277 109.285118 
L 314.271231 109.077176 
L 314.479133 109.365484 
L 314.779437 110.087634 
L 315.02199 110.456252 
L 315.391595 110.243849 
L 316.246305 109.513451 
L 316.465758 109.889805 
L 316.731412 110.924449 
L 317.447521 113.570094 
L 318.244481 115.280538 
L 318.671836 116.681129 
L 318.925939 117.214329 
L 319.052991 117.054062 
L 319.561197 116.511069 
L 320.080954 116.174033 
L 320.877913 115.212043 
L 321.282169 115.286166 
L 321.825025 115.551391 
L 322.15998 114.813316 
L 322.899189 112.86959 
L 323.211043 112.646054 
L 323.418945 112.274648 
L 323.857851 110.92141 
L 324.435358 108.342089 
L 325.278519 105.903854 
L 325.752075 103.314193 
L 326.837788 97.115266 
L 327.218943 94.372469 
L 328.050553 89.448972 
L 328.501009 87.740178 
L 329.194018 84.803399 
L 329.736874 82.510221 
L 330.660886 80.040778 
L 331.688849 78.043997 
L 332.139305 77.709047 
L 332.150855 77.722464 
L 332.335657 77.751389 
L 332.55511 77.464114 
L 333.213468 76.283715 
L 333.271219 76.316862 
L 333.536872 76.316873 
L 333.871826 76.150006 
L 334.056629 75.91179 
L 334.668786 75.129875 
L 334.842038 75.12394 
L 335.084591 75.044305 
L 335.927752 74.570423 
L 336.528359 73.882807 
L 337.128967 74.306601 
L 337.510122 74.810491 
L 337.718024 74.80698 
L 338.110729 74.901373 
L 338.411033 75.115244 
L 338.815288 76.231492 
L 339.277294 77.608859 
L 339.508297 77.752201 
L 339.704649 77.921848 
L 339.877901 78.4941 
L 340.975165 82.847751 
L 341.621973 84.026713 
L 341.968478 84.69085 
L 342.049329 84.620403 
L 342.430483 83.980934 
L 342.892489 83.481248 
L 343.158142 83.303053 
L 343.504647 82.347643 
L 345.294919 77.12354 
L 345.964828 75.805936 
L 346.727137 73.82306 
L 346.93504 73.681407 
L 347.397046 73.263662 
L 348.159355 72.489747 
L 348.783063 72.700692 
L 349.106467 73.042976 
L 349.510722 72.748485 
L 349.811026 72.252243 
L 350.504034 70.704259 
L 351.035341 68.106939 
L 351.555098 66.599542 
L 351.75145 66.507436 
L 352.086404 66.655478 
L 352.432909 66.872979 
L 352.583061 66.763276 
L 352.975765 66.464437 
L 353.33382 66.622949 
L 353.622574 66.574439 
L 353.899777 66.63514 
L 355.262694 68.190197 
L 355.782451 68.621767 
L 356.371508 68.913996 
L 356.579411 68.713254 
L 357.029866 67.761331 
L 357.722875 65.382804 
L 358.704637 64.413433 
L 359.062692 64.203421 
L 359.362995 64.307935 
L 359.859652 64.649182 
L 360.171506 64.264063 
L 360.725912 63.807 
L 360.864514 63.91058 
L 361.083967 64.462347 
L 363.255394 72.982884 
L 363.601899 74.515677 
L 363.809801 74.803585 
L 364.144755 74.738503 
L 364.283357 74.912979 
L 364.976366 76.012784 
L 365.28822 76.089288 
L 366.050529 76.061805 
L 366.639587 76.309941 
L 366.974541 76.331924 
L 367.424996 77.00012 
L 367.71375 76.915859 
L 368.037154 76.804416 
L 368.152655 76.939343 
L 368.54536 77.91668 
L 368.880315 78.9927 
L 369.238369 79.812388 
L 369.781226 80.743517 
L 370.90159 85.401219 
L 371.548398 86.833738 
L 371.906452 87.086341 
L 372.183656 87.166794 
L 372.403109 87.319559 
L 373.26937 88.423099 
L 373.477272 88.528314 
L 373.650524 88.335153 
L 374.216481 87.552397 
L 374.643837 87.344408 
L 374.747788 87.335989 
L 374.770888 87.365101 
L 375.105843 87.613042 
L 375.267545 87.729343 
L 375.475447 87.961041 
L 375.949003 89.218783 
L 376.722863 91.279025 
L 377.33502 92.764643 
L 378.178181 93.892655 
L 378.87119 95.184483 
L 379.171493 95.16539 
L 379.390946 94.807702 
L 380.52286 91.583145 
L 381.712525 86.15079 
L 382.11678 85.682787 
L 382.255382 85.59716 
L 382.624987 84.959185 
L 383.225594 83.743869 
L 383.433497 83.633442 
L 383.976354 83.026044 
L 384.692463 81.930278 
L 384.877265 82.005018 
L 385.166019 82.539994 
L 385.616474 83.151098 
L 385.882128 83.21348 
L 386.09003 83.059893 
L 386.436534 82.788157 
L 386.598236 83.128449 
L 386.84079 83.437499 
L 387.094893 83.370019 
L 388.030454 81.5764 
L 388.654162 79.556422 
L 388.815864 79.488255 
L 389.012217 79.32397 
L 389.220119 78.919571 
L 389.612824 78.222398 
L 390.398234 76.956871 
L 391.056592 75.673319 
L 391.449297 75.616069 
L 392.130756 75.839809 
L 392.48881 75.856804 
L 392.742913 76.204494 
L 393.204919 77.012662 
L 393.459022 76.823121 
L 393.770876 76.141697 
L 394.429235 74.57486 
L 394.729538 74.038655 
L 395.318596 71.532786 
L 395.965404 68.400982 
L 396.46206 66.369609 
L 396.681513 66.256628 
L 396.900965 66.335068 
L 397.062668 66.530826 
L 397.25902 66.682537 
L 397.466923 66.530048 
L 397.813427 65.959056 
L 398.07908 65.639371 
L 398.275433 65.638147 
L 398.425585 65.812992 
L 399.176344 66.871341 
L 399.615249 66.76752 
L 399.904003 67.318437 
L 400.597012 69.127307 
L 401.451722 68.546167 
L 401.832877 67.594549 
L 402.202482 65.637506 
L 402.502786 64.707569 
L 402.791539 64.409323 
L 402.953241 64.214461 
L 403.149594 63.512557 
L 404.44321 57.490133 
L 404.939866 55.947809 
L 405.205519 55.34476 
L 406.256583 53.396142 
L 406.383634 53.422646 
L 406.649288 53.954943 
L 407.157494 54.728238 
L 407.434697 54.965491 
L 407.63105 55.12191 
L 408.081505 55.901616 
L 409.294271 59.242424 
L 409.640775 59.732203 
L 409.825577 60.330658 
L 410.899741 64.238032 
L 411.350196 65.679305 
L 411.835303 67.119992 
L 412.204907 67.833969 
L 412.42436 67.867546 
L 412.724664 67.581845 
L 413.024967 67.414702 
L 413.186669 67.528495 
L 413.660225 68.105271 
L 413.798827 68.018918 
L 414.05293 67.542778 
L 414.734389 66.340141 
L 414.86144 66.070345 
L 415.300346 64.980581 
L 415.565999 64.738749 
L 416.143506 64.54161 
L 416.374509 64.524297 
L 416.894266 64.110611 
L 417.344721 62.973543 
L 417.876028 60.76655 
L 418.268733 59.417846 
L 418.649888 58.522586 
L 419.481498 55.234796 
L 419.804902 54.60879 
L 420.059005 54.426932 
L 420.255358 53.832265 
L 420.844415 52.218211 
L 421.098518 52.044549 
L 421.271771 52.025338 
L 421.479673 51.681912 
L 421.710676 50.969942 
L 422.449885 48.089923 
L 422.703989 47.833321 
L 422.969642 47.718659 
L 423.131344 47.230328 
L 424.297909 43.009666 
L 424.702164 42.578607 
L 425.18727 40.729179 
L 426.169032 36.780728 
L 427.751402 32.708339 
L 428.040155 32.411484 
L 428.190307 32.64569 
L 428.606113 33.086725 
L 429.021918 33.293824 
L 429.414623 33.540539 
L 429.714926 34.127693 
L 431.297296 40.348989 
L 432.891216 48.457191 
L 433.745927 53.306554 
L 434.173282 55.210092 
L 434.716139 57.781601 
L 434.924042 57.865284 
L 435.455348 57.47303 
L 435.686351 57.39243 
L 435.917354 57.615336 
L 436.41401 58.037841 
L 436.448661 57.99063 
L 436.772065 57.298045 
L 437.130119 56.085604 
L 437.453523 55.499698 
L 437.719177 55.322705 
L 438.146532 55.210506 
L 438.585437 53.942506 
L 439.058993 53.024723 
L 439.209145 52.768786 
L 439.520999 52.463554 
L 439.682701 52.603106 
L 439.855953 53.106786 
L 440.317959 54.392558 
L 440.883916 55.730591 
L 441.484524 57.516705 
L 441.623126 57.421979 
L 441.98118 57.078547 
L 442.223733 56.960352 
L 442.443186 57.166171 
L 442.731939 57.745587 
L 443.009143 58.177051 
L 443.147745 58.117048 
L 443.56355 57.359641 
L 443.690601 57.491593 
L 443.898504 57.483159 
L 444.245008 57.533125 
L 444.499112 57.883337 
L 444.810965 58.065064 
L 445.076619 58.149054 
L 445.631026 58.779985 
L 445.873579 59.073768 
L 448.091207 63.123193 
L 448.472361 64.133703 
L 449.015218 64.561725 
L 449.373273 65.278128 
L 449.92768 66.382791 
L 450.193333 66.358891 
L 450.528287 66.142692 
L 450.678439 66.316787 
L 451.013393 67.120044 
L 451.440748 68.01616 
L 451.706402 68.398257 
L 453.369623 73.945708 
L 454.894242 81.908135 
L 455.483299 85.241291 
L 455.922205 88.232937 
L 456.742265 94.112085 
L 457.215821 95.894224 
L 458.001231 98.680331 
L 458.093632 98.686644 
L 458.116732 98.658495 
L 458.336185 98.161394 
L 459.606701 94.811023 
L 459.907004 95.096144 
L 460.138007 95.24821 
L 460.600013 95.109056 
L 460.900317 94.948275 
L 461.258371 95.021983 
L 461.581775 95.467025 
L 461.731927 95.855428 
L 461.97448 96.347442 
L 462.286334 96.573341 
L 462.702139 96.785299 
L 463.002443 97.245433 
L 463.279647 98.411531 
L 463.868704 100.518476 
L 464.31916 101.701444 
L 464.965968 103.878106 
L 465.427974 105.288904 
L 465.751378 105.665229 
L 465.878429 105.590833 
L 466.74469 104.250332 
L 467.021894 104.113028 
L 467.264447 103.581403 
L 468.015206 101.603237 
L 468.038306 101.614562 
L 468.384811 102.070295 
L 468.638914 102.241259 
L 469.297272 102.074693 
L 469.805478 101.723764 
L 470.394536 102.204069 
L 470.498487 102.058662 
L 471.006693 100.8012 
L 471.410949 99.887916 
L 471.688152 99.784957 
L 472.023106 99.683494 
L 472.33496 98.847052 
L 473.12037 96.564396 
L 473.270522 96.679358 
L 473.501525 97.212874 
L 473.709427 97.493818 
L 473.720977 97.487839 
L 473.90578 97.254655 
L 474.217634 96.342673 
L 474.74894 94.862134 
L 474.910642 94.9724 
L 475.314897 95.35792 
L 475.337998 95.337157 
L 475.5228 94.955631 
L 475.996356 93.054342 
L 476.31976 92.060084 
L 476.446812 92.138852 
L 476.851067 92.425423 
L 477.15137 92.174976 
L 477.613376 91.64221 
L 478.017631 90.669855 
L 479.288147 85.42857 
L 479.946505 83.624115 
L 480.720365 81.746655 
L 481.066869 79.805797 
L 481.505775 77.685273 
L 482.614589 73.820254 
L 483.018844 72.442301 
L 483.157446 72.449641 
L 483.353798 72.769239 
L 483.862004 73.68556 
L 484.058357 73.753074 
L 484.543463 73.73913 
L 484.728265 73.970415 
L 485.08632 75.058506 
L 485.479025 76.019026 
L 486.379936 77.903743 
L 488.343461 85.229435 
L 489.336773 87.598911 
L 489.706378 88.8795 
L 489.92583 88.944284 
L 490.503338 88.569661 
L 490.734341 88.304861 
L 490.884492 88.269579 
L 491.254097 88.566255 
L 491.623702 88.674401 
L 491.854705 88.482108 
L 492.120358 88.381734 
L 492.27051 88.555854 
L 492.513063 89.149179 
L 493.06747 90.555019 
L 493.217622 90.412988 
L 493.818229 89.62816 
L 493.979931 89.850916 
L 494.314885 90.702245 
L 494.927043 92.356776 
L 495.412149 93.031454 
L 495.781754 94.286112 
L 497.791479 103.689158 
L 498.184184 105.515946 
L 498.519138 106.246503 
L 498.807892 106.908402 
L 499.327648 108.661162 
L 499.789654 110.198769 
L 500.089958 110.438375 
L 500.540413 110.813547 
L 501.03707 111.982369 
L 501.268072 112.301591 
L 501.429774 112.368109 
L 501.84558 112.69807 
L 502.492388 113.113211 
L 502.885093 113.93077 
L 503.208497 115.327864 
L 503.716703 117.148835 
L 504.074758 118.58054 
L 505.10272 122.274215 
L 505.483875 122.535206 
L 505.691778 122.941546 
L 506.061382 124.156622 
L 506.558039 125.928049 
L 506.869893 126.00732 
L 507.112446 126.119647 
L 507.343448 126.600073 
L 507.655302 127.660941 
L 507.967156 128.635835 
L 508.359861 129.050242 
L 508.602414 129.041769 
L 508.902718 129.377897 
L 509.179921 130.394025 
L 509.711228 132.410103 
L 509.86138 132.427448 
L 510.023082 132.235795 
L 510.346486 131.935516 
L 510.485088 132.088755 
L 510.831592 132.891799 
L 511.328248 134.117514 
L 511.351349 134.10594 
L 511.4784 133.863655 
L 512.22916 131.841213 
L 512.494813 131.709824 
L 513.106971 131.385584 
L 513.418825 130.428166 
L 513.776879 129.564081 
L 514.030982 129.337736 
L 514.319736 129.029759 
L 514.585389 128.135093 
L 516.006057 121.993089 
L 517.137971 117.602991 
L 517.81943 115.023274 
L 518.050433 114.776994 
L 518.396937 114.878216 
L 518.708791 114.967458 
L 519.089946 114.920757 
L 519.286298 115.234209 
L 520.23341 117.254754 
L 520.660765 117.933992 
L 520.995719 119.062157 
L 521.550126 120.910514 
L 522.104533 122.03406 
L 522.474138 123.273739 
L 523.109396 125.412067 
L 523.617602 125.876642 
L 523.894806 126.825573 
L 525.04982 131.560416 
L 525.303923 132.286009 
L 525.765929 134.583569 
L 526.516689 138.347825 
L 526.851643 138.915132 
L 527.510001 140.825435 
L 528.087508 142.654709 
L 528.283861 142.690501 
L 528.491763 142.758829 
L 528.745867 143.129877 
L 529.230973 144.250236 
L 529.80848 145.601352 
L 530.154984 145.965978 
L 530.466838 146.753509 
L 531.067446 149.159592 
L 531.367749 149.851756 
L 531.910606 151.025421 
L 532.626715 152.214579 
L 533.03097 153.609353 
L 535.675953 162.184534 
L 536.865618 164.831148 
L 537.697229 165.368143 
L 537.870481 165.264193 
L 538.263186 164.616643 
L 538.60969 163.545946 
L 539.117896 161.124847 
L 539.753154 158.114811 
L 540.19206 156.246535 
L 542.132484 146.12514 
L 542.837043 143.725482 
L 544.153759 137.316342 
L 544.731267 134.863427 
L 545.482026 131.444461 
L 548.115459 124.244315 
L 549.443726 121.876843 
L 549.928832 121.866233 
L 551.811505 122.048048 
L 552.400563 121.797122 
L 552.95497 121.954456 
L 553.243723 122.3741 
L 553.75193 123.406616 
L 554.456488 125.458006 
L 555.172597 127.335329 
L 555.623053 128.211784 
L 555.969557 128.369555 
L 556.258311 128.392599 
L 556.627916 128.178046 
L 556.847368 128.153167 
L 557.055271 128.435514 
L 558.002383 130.165717 
L 558.037033 130.14039 
L 558.961045 128.778484 
L 559.607853 127.521299 
L 559.792655 127.643972 
L 559.954357 127.653896 
L 560.243111 127.385101 
L 560.485664 127.033043 
L 561.351925 125.501537 
L 561.386575 125.526697 
L 561.79083 125.767515 
L 561.998733 125.595626 
L 562.864994 124.014104 
L 562.911194 124.056791 
L 563.038246 124.354242 
L 563.546452 125.934515 
L 563.789005 125.988815 
L 564.19326 126.00018 
L 564.424263 126.389583 
L 564.701467 126.990466 
L 565.325175 129.179062 
L 566.56104 131.905861 
L 567.034596 132.888348 
L 567.32335 133.51079 
L 568.016358 135.661084 
L 568.790218 139.348714 
L 569.309974 142.318273 
L 572.509365 163.910726 
L 572.92517 165.986359 
L 573.641279 172.110533 
L 574.934895 181.853269 
L 575.3738 183.761682 
L 577.314225 189.484879 
L 578.076534 190.318361 
L 578.295987 190.241432 
L 578.654041 189.637913 
L 579.035196 188.580659 
L 579.543403 186.278786 
L 580.190211 182.28216 
L 581.287474 175.723948 
L 581.968933 171.319404 
L 582.742793 166.273309 
L 583.505102 161.033437 
L 584.278962 156.689518 
L 584.798718 153.666654 
L 585.387776 149.941483 
L 586.138535 146.518971 
L 587.097197 143.16176 
L 587.432151 143.197211 
L 587.640054 143.508338 
L 587.905707 143.780211 
L 587.998108 143.635041 
L 588.598716 142.347009 
L 588.610266 142.351932 
L 588.875919 142.526785 
L 589.187773 143.069407 
L 589.592028 143.746484 
L 589.626679 143.714659 
L 589.811481 143.325686 
L 590.55069 141.849849 
L 590.781693 141.735004 
L 591.047347 141.711632 
L 591.313 142.03978 
L 592.09841 143.357426 
L 592.802969 145.813036 
L 593.934883 151.20202 
L 594.905095 155.764954 
L 595.436402 158.075429 
L 595.921508 160.215471 
L 597.70023 171.384121 
L 598.104485 173.835876 
L 598.589591 176.402577 
L 599.652204 181.506468 
L 600.06801 182.98929 
L 601.384726 188.537495 
L 604.12211 196.565568 
L 604.584116 197.549509 
L 604.999921 198.025384 
L 606.316638 198.568185 
L 606.778644 198.450826 
L 607.540953 198.895256 
L 607.818157 198.828851 
L 608.742168 199.657892 
L 609.054022 200.159392 
L 610.278337 202.907865 
L 610.763444 204.930005 
L 611.225449 206.435306 
L 611.883808 207.477709 
L 612.611467 208.720639 
L 612.84247 208.917695 
L 613.073472 208.822923 
L 613.593229 208.680364 
L 613.997484 208.662255 
L 614.286238 208.459526 
L 615.325751 207.222369 
L 615.510553 207.277606 
L 615.891708 207.743919 
L 616.122711 207.978076 
L 616.295963 207.832133 
L 616.769519 207.487097 
L 617.139123 207.310152 
L 617.462527 207.209966 
L 617.797482 207.285767 
L 617.982284 206.833523 
L 618.363439 205.924693 
L 618.698393 205.730343 
L 619.021797 205.830677 
L 619.483803 205.959153 
L 619.714806 205.517168 
L 620.396264 204.212153 
L 620.661918 204.193197 
L 621.135473 204.148181 
L 621.297175 204.021006 
L 621.759181 203.389916 
L 622.198087 203.30988 
L 623.133648 203.613707 
L 623.376202 203.60659 
L 623.653405 203.357293 
L 624.565866 202.443362 
L 624.83152 202.293217 
L 625.201124 201.660617 
L 625.882583 200.579628 
L 626.494741 199.965003 
L 628.458265 197.464839 
L 628.954921 196.142275 
L 629.486228 194.768064 
L 630.294738 193.170411 
L 631.149449 190.750498 
L 631.334251 190.742988 
L 631.530604 190.676503 
L 631.773157 190.226856 
L 632.80112 187.944759 
L 633.390177 187.084481 
L 634.233337 185.457862 
L 635.446103 183.228916 
L 636.081361 182.223565 
L 637.143974 182.242021 
L 637.351877 182.443464 
L 638.322089 183.759562 
L 638.657043 183.8217 
L 639.038198 183.507861 
L 639.592605 182.728377 
L 639.985309 182.048673 
L 640.701418 181.864129 
L 641.059473 181.006388 
L 641.509929 179.454661 
L 642.861296 174.218179 
L 644.443665 169.021761 
L 644.743969 168.724081 
L 645.136674 168.516097 
L 646.083786 168.727468 
L 646.603542 168.651767 
L 647.712356 169.869634 
L 648.232113 170.524485 
L 648.78652 171.137034 
L 649.456428 172.421476 
L 650.334239 174.33417 
L 651.466153 177.092022 
L 652.112961 178.242569 
L 653.383477 179.583343 
L 653.695331 180.185658 
L 658.546392 199.49597 
L 659.597455 202.486457 
L 660.429065 204.242036 
L 661.098974 205.188679 
L 661.641831 205.610266 
L 662.092286 205.703429 
L 662.508092 205.567918 
L 662.946997 205.179817 
L 663.443653 204.418688 
L 664.00961 203.108149 
L 664.644868 201.036759 
L 665.360977 197.885911 
L 666.088636 193.734491 
L 666.088636 193.734491 
" clip-path="url(#p9c9e4ccfeb)" style="fill: none; stroke: #1f77b4; stroke-width: 1.5; stroke-linecap: square"/>
   </g>
   <g id="line2d_15">
    <path d="M 57.361364 210.034599 
L 57.89267 210.488662 
L 58.354676 210.612312 
L 58.805132 210.504519 
L 59.301788 210.140577 
L 59.879295 209.417332 
L 60.572304 208.161669 
L 61.403914 206.161777 
L 62.431877 203.065786 
L 63.748594 198.332726 
L 65.758319 190.159932 
L 68.611205 178.689731 
L 70.089623 173.700241 
L 70.366826 173.34589 
L 70.586279 173.489077 
L 70.851933 173.632595 
L 71.302388 173.673011 
L 71.47564 173.652107 
L 71.579592 173.804187 
L 72.365002 175.572815 
L 72.399652 175.545308 
L 72.596004 175.246147 
L 73.01181 174.503943 
L 73.289013 174.540393 
L 73.87807 174.79164 
L 74.455578 175.316143 
L 74.848283 175.175439 
L 75.171687 175.132607 
L 75.344939 175.537269 
L 76.22275 178.598364 
L 77.366214 185.162956 
L 77.712718 186.269708 
L 78.290226 188.333361 
L 78.590529 189.354486 
L 79.630042 193.984464 
L 79.988097 194.794476 
L 80.184449 194.82624 
L 80.496303 194.373566 
L 80.727306 194.272683 
L 81.316364 194.814042 
L 81.512716 194.916622 
L 81.709069 194.608709 
L 81.986272 194.335196 
L 82.136424 194.403429 
L 82.378977 194.972845 
L 83.141286 196.805879 
L 83.591742 197.979652 
L 84.134599 199.779171 
L 84.527304 200.998684 
L 85.197212 203.269504 
L 85.566817 204.263756 
L 86.59478 207.775366 
L 86.871983 208.058852 
L 87.160737 208.068495 
L 87.611192 207.628845 
L 87.634293 207.653055 
L 87.992347 208.144205 
L 88.604505 208.849662 
L 88.777757 208.641918 
L 88.97411 207.95226 
L 89.863471 202.899722 
L 90.313926 200.76404 
L 90.59113 200.089907 
L 90.775932 200.04698 
L 90.879883 200.192116 
L 91.261038 200.916099 
L 91.468941 200.840877 
L 91.746144 200.680531 
L 92.138849 201.016423 
L 92.635505 201.519538 
L 93.617268 201.987849 
L 93.940672 201.805941 
L 94.137024 202.037908 
L 94.59903 202.712934 
L 94.910884 202.892865 
L 95.361339 203.71245 
L 97.347964 208.178387 
L 97.648268 209.784286 
L 98.549179 214.881783 
L 100.374102 220.81248 
L 100.385652 220.808437 
L 100.847658 220.704076 
L 101.275014 220.864208 
L 101.436716 220.680349 
L 101.968022 219.594125 
L 102.025773 219.652331 
L 102.210575 220.107908 
L 102.637931 221.010214 
L 103.099936 221.606041 
L 103.457991 223.272142 
L 103.804495 224.387119 
L 104.289601 225.036016 
L 104.936409 225.62837 
L 105.190513 226.194273 
L 105.860421 227.812747 
L 106.102974 228.160024 
L 106.403278 228.91717 
L 106.923034 230.325178 
L 107.119387 230.327723 
L 107.38504 229.967989 
L 107.627593 229.206379 
L 108.274401 226.924967 
L 108.95586 225.669722 
L 109.348565 225.460375 
L 109.579568 225.03598 
L 110.030023 224.154297 
L 110.226376 224.137048 
L 110.676831 224.232269 
L 110.838533 223.958866 
L 111.196588 222.809072 
L 111.600843 220.650253 
L 112.062849 218.592874 
L 112.386253 217.374994 
L 112.651906 215.354969 
L 113.587468 207.174112 
L 113.841571 206.595904 
L 113.957072 206.703264 
L 114.199625 207.445737 
L 114.996585 210.320111 
L 115.493242 212.526255 
L 115.758895 212.903492 
L 115.897497 212.822187 
L 116.255551 212.483114 
L 116.428803 212.52726 
L 116.717557 212.633807 
L 117.676219 211.759425 
L 118.092024 211.017383 
L 118.484729 210.835921 
L 118.681082 211.250271 
L 118.958285 211.655779 
L 119.108437 211.603033 
L 119.38564 211.253816 
L 120.090199 209.784593 
L 120.309652 210.000868 
L 120.96801 211.152893 
L 121.73032 213.086803 
L 121.938222 213.371283 
L 122.365578 213.876104 
L 122.631231 213.905283 
L 122.989285 213.998181 
L 123.289589 213.872645 
L 123.416641 213.96478 
L 123.740045 214.431825 
L 123.924847 214.361073 
L 124.1443 214.320008 
L 124.363753 214.328973 
L 125.241564 213.103725 
L 125.253114 213.117244 
L 125.414816 213.507688 
L 125.842171 215.448679 
L 126.385028 218.049774 
L 127.205088 220.340233 
L 127.586243 220.265003 
L 128.995361 218.191906 
L 129.261014 218.062822 
L 129.445816 217.506264 
L 129.75767 216.717785 
L 130.011773 216.563493 
L 130.392928 216.365389 
L 130.912685 215.261241 
L 131.201438 213.846172 
L 131.721195 211.475429 
L 132.240951 210.30572 
L 132.714507 209.640203 
L 132.93396 209.177897 
L 133.650069 207.644742 
L 134.181376 206.570327 
L 134.49323 206.023143 
L 134.747333 205.907221 
L 135.128487 205.885846 
L 135.648244 204.996504 
L 136.087149 204.337122 
L 136.595356 203.936465 
L 137.392316 204.450397 
L 137.992923 206.415002 
L 138.662832 208.078616 
L 138.789883 207.958441 
L 139.020886 207.352006 
L 139.598393 205.661298 
L 139.806296 205.23127 
L 140.1297 203.606754 
L 140.753408 200.788704 
L 141.146113 199.862848 
L 141.515717 199.317948 
L 142.301127 197.974654 
L 142.693832 196.230518 
L 144.183801 189.294399 
L 144.495655 188.565534 
L 144.680457 188.569144 
L 144.91146 188.617523 
L 145.569818 188.400832 
L 145.73152 188.38334 
L 145.881672 188.123207 
L 146.932735 185.860897 
L 147.452492 184.329984 
L 148.561306 178.856265 
L 148.780758 178.635147 
L 148.954011 178.78194 
L 149.104162 178.762894 
L 149.750971 178.204906 
L 149.866472 178.263855 
L 150.201426 179.043733 
L 150.582581 180.02759 
L 150.813584 180.125272 
L 150.975286 179.797234 
L 151.645194 177.197121 
L 152.361303 173.693218 
L 152.765558 172.667993 
L 153.077412 172.198938 
L 153.319965 171.944339 
L 153.66647 171.673813 
L 153.851272 171.427344 
L 154.105375 170.717252 
L 154.405679 170.160735 
L 155.468292 169.126778 
L 156.450054 167.085743 
L 156.681057 167.244188 
L 158.205676 168.766379 
L 159.106588 171.028909 
L 159.788046 172.543129 
L 160.019049 172.768771 
L 161.532118 174.948238 
L 161.855522 175.123791 
L 161.982574 174.993194 
L 162.225127 174.356679 
L 162.767984 172.501675 
L 162.918135 172.605917 
L 163.484093 173.543073 
L 163.668895 174.379684 
L 164.581356 179.133405 
L 164.974061 180.594844 
L 165.863422 184.269715 
L 166.198377 184.497454 
L 166.45248 184.48264 
L 166.891385 184.141541 
L 167.29564 183.682614 
L 167.549743 183.748196 
L 167.711445 184.044438 
L 168.208102 184.978737 
L 168.83181 185.691284 
L 168.85491 185.668918 
L 169.097463 185.17685 
L 169.386216 184.691315 
L 169.767371 184.869689 
L 170.090775 185.092361 
L 170.298678 184.877829 
L 170.679833 183.97309 
L 171.141838 182.465956 
L 171.696245 180.532123 
L 171.938798 180.316208 
L 172.1005 180.418184 
L 172.319953 180.88543 
L 172.932111 182.98262 
L 173.740621 185.736348 
L 174.110226 186.25896 
L 174.618432 187.28741 
L 175.034237 188.318537 
L 175.346091 188.581428 
L 175.496243 188.484707 
L 175.646395 188.096201 
L 176.07375 186.989119 
L 176.223902 187.061347 
L 176.639707 187.367664 
L 177.113263 187.611748 
L 177.529068 187.506516 
L 178.314478 188.030563 
L 179.053688 189.661869 
L 179.388642 190.42916 
L 179.815997 191.543075 
L 179.827547 191.53868 
L 180.08165 191.320877 
L 180.405054 191.06749 
L 180.636057 191.098238 
L 181.074963 190.899235 
L 181.502318 189.907006 
L 182.333929 187.41053 
L 182.911436 185.792597 
L 183.096238 185.551843 
L 184.101101 183.84834 
L 184.378304 183.684084 
L 184.713258 183.372366 
L 185.094413 183.33513 
L 185.429367 183.470529 
L 185.591069 183.430752 
L 185.833622 182.759233 
L 186.237877 181.882288 
L 186.503531 181.701586 
L 186.711433 181.590244 
L 186.977087 181.405087 
L 187.138789 181.67113 
L 187.508393 182.412829 
L 187.623895 182.230143 
L 188.686508 179.046519 
L 189.518119 174.753863 
L 190.234228 170.365041 
L 190.707783 167.399417 
L 191.377692 164.920871 
L 191.805047 164.091088 
L 192.544256 163.447728 
L 192.85611 162.60405 
L 194.565532 157.167557 
L 195.039088 155.833129 
L 195.581944 154.87629 
L 195.778297 155.02292 
L 195.963099 155.676172 
L 196.84091 159.423966 
L 197.152764 159.860211 
L 197.811122 160.711901 
L 198.076776 161.036745 
L 199.035438 161.880731 
L 199.25489 161.620428 
L 199.439693 161.027976 
L 200.733309 156.71212 
L 201.091363 155.933571 
L 201.426318 155.17947 
L 201.784372 154.81523 
L 202.015375 154.571299 
L 202.026925 154.577112 
L 202.512031 154.780827 
L 202.766134 154.704946 
L 202.939387 154.839976 
L 203.332092 155.462045 
L 203.412943 155.401992 
L 203.817198 154.891584 
L 204.117501 154.045232 
L 204.383155 152.57209 
L 204.82206 150.496884 
L 205.145464 150.24148 
L 205.388017 149.886309 
L 205.61902 149.14205 
L 206.323579 146.33143 
L 208.102301 141.53016 
L 208.425705 140.967354 
L 208.575857 140.97915 
L 208.864611 141.138229 
L 209.014763 140.999543 
L 209.476768 140.365791 
L 209.707771 140.304419 
L 209.927224 140.245954 
L 210.158227 139.828627 
L 210.770385 138.081655 
L 211.509594 135.604394 
L 211.98315 133.924514 
L 212.248803 132.568793 
L 212.676159 130.709673 
L 213.426918 128.716996 
L 213.819623 127.56393 
L 214.177677 127.351293 
L 214.40868 127.238985 
L 214.720534 127.260569 
L 214.905336 127.52102 
L 215.14789 128.326519 
L 215.505944 129.350854 
L 215.794698 129.502703 
L 215.9795 129.410817 
L 216.464606 128.869155 
L 216.741809 129.032191 
L 217.284666 129.521508 
L 217.665821 129.366398 
L 217.839073 129.390704 
L 218.301079 129.918821 
L 219.132689 131.557729 
L 219.99895 132.66293 
L 220.253053 133.302241 
L 220.611108 133.954372 
L 220.934512 134.297334 
L 221.789223 134.726398 
L 222.181928 134.15104 
L 222.528432 132.914157 
L 223.14059 130.702676 
L 223.371592 130.436338 
L 223.579495 130.453775 
L 224.191653 131.089183 
L 224.630558 132.0248 
L 224.653659 132.014388 
L 225.219616 131.943549 
L 225.404418 132.097903 
L 225.877974 132.440009 
L 226.178278 132.2422 
L 226.640283 131.796949 
L 226.790435 131.955765 
L 227.910799 134.137095 
L 228.153352 134.477369 
L 228.638458 135.876588 
L 229.943625 139.575583 
L 230.267029 139.804651 
L 230.521132 139.771444 
L 230.879186 139.742207 
L 231.375843 140.177315 
L 231.791648 140.064877 
L 232.346055 139.531951 
L 233.166115 140.205768 
L 233.443319 140.397442 
L 233.628121 140.240426 
L 233.986175 139.571099 
L 234.240279 138.67569 
L 235.245141 134.56846 
L 235.429943 134.472169 
L 235.9497 134.721214 
L 236.203803 134.29204 
L 236.446356 133.997264 
L 237.243316 133.892172 
L 237.54362 134.211401 
L 237.659121 134.095256 
L 238.132677 133.50134 
L 238.34058 133.504003 
L 238.525382 133.914811 
L 238.733285 134.136998 
L 238.883437 133.986594 
L 239.680397 133.074821 
L 239.888299 132.910767 
L 240.257904 132.576397 
L 240.477357 132.677269 
L 240.823861 132.71738 
L 241.135715 132.600774 
L 241.886474 131.230386 
L 242.602583 128.876352 
L 243.826899 123.032375 
L 244.208053 122.554438 
L 244.485257 122.476919 
L 244.958813 122.602994 
L 245.212916 123.255031 
L 245.490119 123.762997 
L 245.605621 123.578728 
L 245.917475 122.428342 
L 246.252429 120.217811 
L 246.772186 117.370487 
L 247.280392 115.509992 
L 247.407443 115.560017 
L 248.192853 116.309396 
L 248.319905 116.103233 
L 249.636621 112.875391 
L 249.682822 112.903671 
L 249.902275 113.126321 
L 250.237229 113.488517 
L 250.375831 113.335672 
L 250.768536 112.350447 
L 252.246954 107.932659 
L 252.466407 107.923691 
L 252.68586 108.057895 
L 252.986163 108.291548 
L 253.251817 108.026053 
L 253.436619 107.698439 
L 253.783123 107.168905 
L 254.522333 106.348821 
L 254.591633 106.415663 
L 254.961238 106.627196 
L 255.226891 106.537973 
L 255.977651 106.132294 
L 256.75151 104.157828 
L 256.959413 104.258634 
L 257.201966 104.390741 
L 257.329018 104.184452 
L 257.721723 103.003786 
L 258.068227 102.315894 
L 258.229929 102.31072 
L 258.495582 102.618263 
L 258.853637 103.099529 
L 260.112603 105.417768 
L 260.366706 105.278607 
L 260.586158 104.97305 
L 261.764273 103.077463 
L 261.995276 103.011684 
L 262.34178 103.322998 
L 262.873087 104.22001 
L 263.392844 104.989496 
L 263.519895 104.896693 
L 264.178253 104.04412 
L 264.420807 104.090901 
L 264.963663 105.09401 
L 265.425669 106.558215 
L 265.829924 106.92401 
L 266.465182 107.191915 
L 266.603784 107.398934 
L 266.846337 108.371578 
L 267.747248 112.690143 
L 268.359406 115.694282 
L 268.832962 117.641737 
L 269.191016 118.311832 
L 269.329618 118.242779 
L 269.722323 117.955131 
L 269.941776 117.921187 
L 270.184329 117.450231 
L 271.07369 115.735755 
L 271.316243 115.72127 
L 271.581896 115.907635 
L 271.824449 116.683411 
L 272.194054 117.587512 
L 272.344206 117.416094 
L 272.725361 116.494483 
L 273.175816 115.630705 
L 273.291318 115.728903 
L 273.533871 115.887339 
L 274.111378 115.472412 
L 274.480982 114.581765 
L 274.931438 112.753743 
L 276.051802 107.279654 
L 276.294355 107.055387 
L 277.068215 107.282635 
L 277.264567 107.090585 
L 277.368519 106.980507 
L 277.414719 107.025996 
L 277.703473 107.202696 
L 278.26943 106.943961 
L 278.673685 107.101929 
L 278.835387 106.963071 
L 279.435995 106.223469 
L 280.290705 104.116173 
L 281.515021 102.344261 
L 282.462132 100.218843 
L 282.739336 100.18597 
L 283.120491 99.79681 
L 283.443895 99.281265 
L 283.594047 99.34583 
L 283.87125 99.746268 
L 284.148454 100.145986 
L 284.171554 100.131302 
L 284.541158 99.915939 
L 284.933863 99.862343 
L 285.303468 99.980877 
L 285.546021 99.893343 
L 285.719273 100.01165 
L 286.22748 100.928433 
L 288.387357 107.100407 
L 289.46152 113.743481 
L 290.166079 115.724033 
L 290.789787 115.984627 
L 290.997689 116.530207 
L 291.806199 118.2953 
L 292.464558 118.844727 
L 292.972764 118.700288 
L 294.023827 116.965756 
L 294.335681 116.436588 
L 294.751486 116.243309 
L 294.982489 116.298074 
L 295.190392 116.272203 
L 295.432945 116.045166 
L 295.87185 115.503581 
L 296.310756 115.626863 
L 296.507108 115.467262 
L 296.749661 114.81279 
L 297.315618 113.19003 
L 297.997077 112.206199 
L 298.285831 112.05535 
L 298.482183 111.819675 
L 298.643885 111.264549 
L 299.175192 107.827473 
L 300.191604 101.791989 
L 301.000115 97.826443 
L 302.016527 91.793412 
L 302.443883 88.521458 
L 302.99829 84.21928 
L 303.945401 79.039256 
L 304.234155 78.538287 
L 304.892513 78.322783 
L 305.123516 78.470633 
L 305.296768 78.751297 
L 306.012877 80.655601 
L 306.983089 85.56914 
L 307.583697 86.702583 
L 308.068803 88.0572 
L 308.369107 89.718158 
L 308.727161 91.190193 
L 309.096766 92.06742 
L 309.327769 93.307534 
L 310.494333 99.778382 
L 311.626248 105.103112 
L 312.157554 107.006321 
L 312.457858 107.321845 
L 312.792812 107.671898 
L 313.127766 108.298037 
L 313.508921 109.097238 
L 314.20193 109.384204 
L 315.541747 112.194974 
L 316.038403 114.131735 
L 316.523509 117.02299 
L 316.962414 119.036896 
L 317.112566 119.011726 
L 317.285819 118.615684 
L 317.863326 117.113989 
L 318.140529 116.857626 
L 318.371532 116.806852 
L 318.590985 116.363657 
L 318.949039 115.758386 
L 319.688249 114.12507 
L 320.173355 111.368396 
L 320.508309 110.120929 
L 321.028065 108.52753 
L 321.513171 105.759739 
L 321.963627 103.624828 
L 322.379432 102.687858 
L 322.749037 102.144432 
L 323.314994 99.836828 
L 324.042653 95.645856 
L 325.012865 91.197763 
L 326.271831 82.460701 
L 327.057241 79.739323 
L 327.449946 79.577554 
L 327.727149 79.680657 
L 328.535659 80.547992 
L 328.755112 81.307499 
L 329.817725 85.299738 
L 330.106479 85.804691 
L 330.256631 85.804879 
L 330.580035 85.364668 
L 330.857238 84.528457 
L 331.457846 82.437517 
L 331.631098 82.409423 
L 331.862101 82.594156 
L 332.035353 83.12624 
L 332.462709 84.304061 
L 332.982465 85.87385 
L 333.929577 89.354988 
L 334.13748 89.625559 
L 334.14903 89.619782 
L 334.380033 89.32571 
L 334.807388 88.837829 
L 334.94599 88.98783 
L 335.176993 89.356418 
L 335.523497 90.353676 
L 335.708299 90.532728 
L 335.985503 90.436584 
L 336.482159 90.344959 
L 336.747812 91.16645 
L 337.38307 94.31407 
L 337.821976 96.001291 
L 338.110729 96.575044 
L 338.353282 96.945223 
L 338.757537 98.054359 
L 339.184893 99.016218 
L 339.485197 99.86467 
L 340.986715 105.328724 
L 341.136867 105.298063 
L 341.35632 104.845152 
L 343.377595 100.395493 
L 344.728962 96.059343 
L 345.294919 95.477227 
L 345.664524 94.607409 
L 345.837776 94.614258 
L 346.195831 95.23483 
L 346.773338 96.033145 
L 346.888839 95.918547 
L 347.166043 94.990663 
L 347.662699 91.807674 
L 348.482759 87.299237 
L 349.452971 82.032717 
L 349.984278 79.354136 
L 350.827439 75.949435 
L 351.393396 74.033072 
L 351.693699 73.22765 
L 352.109505 71.052863 
L 353.495522 64.832521 
L 353.865127 63.031391 
L 354.777588 57.690212 
L 355.447496 54.997383 
L 356.117405 54.040971 
L 356.590961 53.728123 
L 357.34172 52.982913 
L 357.457222 52.873957 
L 357.665124 52.138176 
L 358.15023 50.41104 
L 359.443846 46.173014 
L 359.663299 46.278497 
L 359.871202 46.2954 
L 360.044454 46.32528 
L 360.471809 46.626089 
L 360.633511 46.857211 
L 360.887615 47.726287 
L 361.29187 49.78871 
L 361.823176 52.296447 
L 362.285182 54.235221 
L 363.035941 59.194861 
L 364.387308 70.285439 
L 364.687612 71.341936 
L 365.877277 74.613622 
L 366.050529 75.047481 
L 367.517398 80.379316 
L 368.48761 83.386071 
L 369.053567 85.45471 
L 370.508885 87.938934 
L 370.543535 87.914249 
L 370.682137 87.599569 
L 370.93624 86.29633 
L 371.340495 84.592503 
L 371.848702 83.684302 
L 372.079705 83.714642 
L 372.611011 84.211151 
L 373.454172 85.252684 
L 373.708275 85.54595 
L 373.950828 85.490199 
L 374.147181 85.25678 
L 374.482135 84.981768 
L 374.759338 85.287533 
L 374.967241 85.504108 
L 374.990341 85.487129 
L 375.336845 85.352446 
L 375.463897 85.50871 
L 375.937453 86.18724 
L 376.203106 86.293667 
L 376.376358 86.00631 
L 376.907665 85.077393 
L 377.219519 84.310231 
L 378.259032 81.50398 
L 378.570886 81.19152 
L 378.767238 80.684673 
L 379.090642 79.924312 
L 379.448697 79.348661 
L 379.7028 78.964178 
L 379.864502 79.095928 
L 380.349608 79.691206 
L 380.661462 79.635357 
L 380.904015 79.541913 
L 381.158118 79.308193 
L 381.469972 78.863617 
L 381.747176 79.004535 
L 382.047479 79.582118 
L 382.717388 81.832246 
L 383.907053 89.879672 
L 384.657812 95.080649 
L 385.581824 99.21864 
L 386.06693 100.403416 
L 386.609787 101.50999 
L 387.164194 103.485145 
L 387.6493 103.793008 
L 388.607962 105.33638 
L 389.104618 105.464572 
L 389.555073 104.969572 
L 390.05173 105.066394 
L 390.340483 105.460039 
L 390.825589 106.135583 
L 390.998842 106.173359 
L 391.310695 105.843863 
L 391.553249 105.105986 
L 392.061455 102.451243 
L 392.638962 99.779939 
L 393.308871 97.253952 
L 394.255982 94.686402 
L 394.683338 93.121746 
L 395.168444 91.373323 
L 395.757501 90.304435 
L 395.942303 90.299869 
L 396.207957 90.250418 
L 396.519811 89.666771 
L 397.143519 87.73744 
L 397.640175 86.532349 
L 397.917378 86.064303 
L 398.206132 85.805632 
L 398.656587 85.366607 
L 399.511298 83.128626 
L 399.823152 82.029169 
L 400.158106 80.870976 
L 400.781814 76.920012 
L 401.497923 72.127382 
L 402.07543 70.417863 
L 402.491235 69.496515 
L 402.88394 68.435411 
L 403.392147 67.371508 
L 403.6578 66.883998 
L 403.888803 66.879271 
L 404.235307 66.173817 
L 404.674213 65.677309 
L 404.870565 65.913999 
L 405.25172 66.936439 
L 405.586674 67.882619 
L 406.02558 68.552663 
L 406.591537 69.524288 
L 406.914941 69.780799 
L 407.053543 69.649914 
L 408.023755 67.650285 
L 409.086368 64.331308 
L 409.444423 63.084833 
L 410.03348 60.394005 
L 410.703388 58.354653 
L 411.142294 57.701852 
L 411.303996 57.821783 
L 411.731351 58.131684 
L 411.927704 58.192234 
L 412.066305 58.393913 
L 412.562962 59.230158 
L 413.175119 59.597655 
L 413.417672 60.461783 
L 413.856578 61.686111 
L 414.434085 62.436349 
L 415.150194 63.670333 
L 415.334996 63.669904 
L 415.62375 63.589471 
L 416.016455 63.29373 
L 416.189707 63.353284 
L 416.45536 63.889519 
L 417.20612 66.581858 
L 417.979979 70.921275 
L 419.227395 78.155851 
L 419.516149 79.756943 
L 421.040768 91.074981 
L 422.84259 100.726163 
L 423.5818 104.418613 
L 423.882103 105.346328 
L 424.101556 105.589776 
L 424.725264 107.050567 
L 424.748364 107.038628 
L 424.956267 107.029738 
L 425.24502 107.458696 
L 425.961129 108.887606 
L 426.446235 110.031933 
L 426.82739 110.722909 
L 427.277846 110.822181 
L 428.017055 111.70294 
L 428.571462 112.412178 
L 428.583012 112.403067 
L 429.22982 111.933624 
L 429.356872 112.1819 
L 429.911279 113.654645 
L 429.99213 113.696268 
L 430.03833 113.643366 
L 430.188482 113.208356 
L 430.962342 109.437062 
L 433.133769 96.967195 
L 433.711276 92.799104 
L 434.635288 86.094738 
L 435.305196 83.296996 
L 436.37936 77.074435 
L 437.245621 72.4851 
L 437.580575 71.149305 
L 438.031031 68.971749 
L 439.474799 60.819149 
L 439.752002 60.299527 
L 440.167807 59.81743 
L 440.560512 59.130806 
L 440.941667 58.514048 
L 441.415223 57.63902 
L 441.611575 57.502923 
L 441.738627 57.694049 
L 443.517349 61.911801 
L 443.748352 62.24655 
L 444.002455 63.158384 
L 445.041968 68.293977 
L 445.261421 68.932134 
L 446.208533 73.0937 
L 446.555037 76.248263 
L 447.132545 80.962672 
L 447.987255 84.446217 
L 448.865066 87.302043 
L 449.454124 88.808897 
L 449.835278 91.111716 
L 451.463849 99.880117 
L 452.826766 104.373322 
L 453.831628 107.703889 
L 454.362935 109.946187 
L 454.582388 110.104872 
L 455.055944 110.697074 
L 455.390898 112.055293 
L 457.250471 120.975905 
L 457.435274 120.931866 
L 457.689377 120.70211 
L 457.804878 120.900746 
L 458.694239 123.119479 
L 459.237096 123.705173 
L 459.456549 124.149044 
L 459.756853 124.683099 
L 460.045606 124.79569 
L 460.32281 124.963379 
L 460.784815 125.591745 
L 461.269922 126.220686 
L 461.651076 126.772727 
L 462.101532 126.965182 
L 462.286334 126.909474 
L 462.702139 126.606706 
L 462.910042 126.737526 
L 463.187246 126.79954 
L 463.429799 126.436482 
L 463.637701 125.613304 
L 465.358673 117.09638 
L 465.90153 115.395462 
L 466.271134 115.362064 
L 466.455936 115.41217 
L 466.917942 115.644761 
L 467.379948 114.913739 
L 467.957455 114.120597 
L 468.246209 114.043045 
L 468.696665 113.906839 
L 468.927667 113.445849 
L 469.470524 111.359765 
L 469.89788 110.062694 
L 470.186633 109.470528 
L 471.226146 105.645231 
L 471.769003 101.918287 
L 472.600613 95.790774 
L 473.709427 90.125327 
L 476.227359 82.995143 
L 476.423711 83.18302 
L 476.700915 83.852042 
L 477.070519 84.702654 
L 477.705777 85.509279 
L 478.213984 87.379851 
L 478.941643 91.06075 
L 480.038907 95.491098 
L 480.30456 95.888926 
L 480.443162 95.818954 
L 480.651064 95.78931 
L 480.997569 96.037778 
L 481.217021 96.086043 
L 481.563526 96.441103 
L 481.725228 96.204284 
L 482.037082 95.756925 
L 482.175683 95.919917 
L 482.568388 97.247943 
L 482.914893 98.261255 
L 483.261397 98.737509 
L 483.677202 99.383451 
L 483.965956 99.749396 
L 484.347111 100.388417 
L 484.543463 100.654309 
L 485.13252 102.059808 
L 485.698477 104.197737 
L 487.107595 113.09332 
L 487.604251 115.743037 
L 488.435862 118.728993 
L 488.978719 120.653913 
L 489.417624 123.030573 
L 489.937381 127.58196 
L 490.410936 131.148226 
L 491.057745 135.119854 
L 491.635252 136.972453 
L 492.201209 137.862997 
L 492.455312 138.220665 
L 493.425524 140.471274 
L 493.795129 140.739124 
L 494.326435 140.812667 
L 494.730691 141.240242 
L 494.742241 141.230726 
L 494.950143 140.895933 
L 495.158046 140.191143 
L 495.5161 138.257418 
L 496.763516 131.042432 
L 496.994519 130.751528 
L 497.202422 130.493664 
L 498.010932 129.408884 
L 498.288135 128.99507 
L 499.708803 124.396367 
L 500.159259 122.224694 
L 500.933118 118.356473 
L 501.579926 115.256388 
L 502.68874 107.924262 
L 503.266247 105.273405 
L 503.635852 104.474666 
L 503.982356 103.236782 
L 504.629165 100.976899 
L 504.894818 100.247537 
L 505.391474 99.016867 
L 505.957431 98.631135 
L 506.269285 97.903849 
L 506.534938 97.448089 
L 506.546489 97.452637 
L 506.708191 97.69666 
L 506.904543 97.814226 
L 507.077795 97.580085 
L 508.394512 94.907595 
L 508.729466 94.64815 
L 508.914268 94.296542 
L 509.353174 93.49759 
L 509.549526 93.550283 
L 509.907581 93.812162 
L 509.953781 93.745163 
L 510.808492 92.182858 
L 511.790254 90.111371 
L 512.171409 89.666688 
L 512.321561 89.732774 
L 512.483263 90.13641 
L 512.887518 91.872653 
L 513.707578 95.042742 
L 514.285085 97.137805 
L 514.62004 97.984782 
L 514.758641 97.935789 
L 515.139796 97.665894 
L 515.289948 97.566572 
L 515.682653 96.726521 
L 516.410312 94.985637 
L 516.722166 94.756006 
L 517.172622 94.695976 
L 517.484475 94.77143 
L 518.385387 94.389555 
L 518.558639 94.100226 
L 518.835842 93.319047 
L 519.297848 91.19137 
L 519.690553 89.630724 
L 520.164109 89.093061 
L 520.360461 89.081099 
L 521.261373 89.920093 
L 521.480826 90.609596 
L 521.746479 91.201043 
L 522.069883 91.193323 
L 522.554989 91.443175 
L 522.739791 91.517035 
L 523.363499 92.685068 
L 524.553164 96.017962 
L 525.904531 101.888656 
L 526.539789 105.955015 
L 527.4407 112.603898 
L 527.764104 114.801595 
L 528.21456 117.523263 
L 528.422462 117.762573 
L 528.561064 117.642502 
L 528.907569 117.33467 
L 529.092371 117.438968 
L 530.051033 119.237076 
L 530.305136 119.826248 
L 530.455288 119.757577 
L 530.65164 119.321238 
L 530.894193 118.927002 
L 531.055895 119.069352 
L 531.4486 119.413784 
L 531.471701 119.393045 
L 531.737354 118.901679 
L 532.049208 118.287567 
L 532.823068 116.245161 
L 532.99632 116.261819 
L 533.354374 116.414277 
L 533.562277 116.196218 
L 533.85103 115.828333 
L 534.289936 115.87237 
L 534.509389 115.548342 
L 534.751942 115.280576 
L 534.763492 115.288405 
L 534.913644 115.575525 
L 536.265011 120.431041 
L 536.911819 123.571061 
L 537.281423 123.523374 
L 537.616378 123.127591 
L 537.905131 122.509304 
L 538.64434 120.379396 
L 538.863793 119.700132 
L 539.487501 118.051128 
L 540.122759 117.321197 
L 540.399962 116.542452 
L 540.723366 115.82037 
L 540.838868 115.8945 
L 541.046771 116.372748 
L 541.439475 117.232128 
L 541.578077 117.2195 
L 541.82063 116.796594 
L 542.59449 115.222566 
L 542.929444 115.081429 
L 543.39145 115.415928 
L 543.645553 115.424611 
L 543.865006 115.668367 
L 544.096009 116.451473 
L 544.696616 119.102401 
L 545.216373 119.814129 
L 545.389625 119.641202 
L 545.585977 119.467172 
L 545.597528 119.473759 
L 545.701479 119.64848 
L 546.001783 120.787187 
L 546.706341 123.613548 
L 547.029745 124.393861 
L 547.3647 125.047431 
L 548.069258 127.923721 
L 548.750717 130.905749 
L 549.00482 131.365086 
L 549.316674 131.314308 
L 549.847981 131.194214 
L 550.125184 131.099798 
L 550.517889 131.126607 
L 550.748892 131.193327 
L 551.026096 131.17732 
L 551.303299 131.008257 
L 551.626703 130.300266 
L 552.14646 128.659362 
L 552.412113 128.281207 
L 552.747067 128.224159 
L 552.95497 128.188096 
L 553.209073 128.050782 
L 553.232173 128.080579 
L 553.393875 128.526506 
L 553.647978 129.901693 
L 554.59509 135.783162 
L 554.953145 137.218478 
L 555.149497 137.34116 
L 555.472901 137.228134 
L 556.431563 136.766906 
L 556.731867 136.213803 
L 557.216973 135.113118 
L 557.378675 135.144114 
L 557.540377 135.30689 
L 558.175635 136.728955 
L 558.753142 138.239067 
L 559.3884 139.365447 
L 559.677154 139.319239 
L 559.919707 138.758474 
L 560.220011 138.138487 
L 560.99387 137.25647 
L 561.455876 136.057354 
L 562.125784 134.192259 
L 562.379888 133.688419 
L 562.922744 132.382532 
L 563.211498 132.005085 
L 564.435813 129.736617 
L 564.724567 128.994808 
L 565.255874 127.675404 
L 565.440676 127.72631 
L 565.706329 128.093369 
L 566.191435 129.48223 
L 566.999946 132.584142 
L 567.415751 134.209658 
L 567.750705 134.902118 
L 567.923957 134.939422 
L 568.085659 134.674098 
L 568.628516 133.605906 
L 568.824868 133.461842 
L 569.252224 133.555234 
L 569.460126 133.532098 
L 569.991433 133.704523 
L 570.280187 134.431526 
L 570.649791 135.201818 
L 570.788393 135.119179 
L 571.238849 134.478414 
L 571.550703 133.794692 
L 571.874107 133.275872 
L 572.197511 133.208946 
L 572.416963 133.596443 
L 573.537327 135.641353 
L 573.883832 135.656673 
L 574.137935 136.120537 
L 574.51909 137.917012 
L 575.33915 142.0259 
L 575.858906 143.851102 
L 576.782918 147.013206 
L 577.071672 147.837406 
L 577.545228 149.439562 
L 578.030334 150.582391 
L 578.342188 151.4894 
L 578.492339 151.500194 
L 578.619391 151.279068 
L 579.3124 149.584702 
L 579.647354 148.951814 
L 579.982308 148.511103 
L 580.409663 148.118307 
L 580.675317 147.941317 
L 581.171973 148.171265 
L 581.414526 148.862788 
L 582.026684 150.830156 
L 582.315437 151.89597 
L 582.696592 153.029936 
L 582.939145 153.328774 
L 583.112397 153.103002 
L 584.059509 151.20842 
L 585.041271 149.935736 
L 585.641879 149.140711 
L 586.126985 148.697613 
L 586.55434 148.937087 
L 587.027896 149.122283 
L 587.3282 148.923055 
L 587.3513 148.95679 
L 588.229111 150.877183 
L 588.748868 152.771036 
L 589.118473 153.931846 
L 589.603579 155.620557 
L 590.181086 157.774191 
L 590.52759 158.351295 
L 590.666192 158.298297 
L 590.897195 157.774086 
L 591.936708 155.138445 
L 591.948258 155.143519 
L 592.10996 155.346884 
L 592.618166 156.522346 
L 593.149473 159.24619 
L 594.48929 169.632135 
L 595.748256 178.670966 
L 596.371963 184.020697 
L 597.030322 188.990754 
L 597.503878 191.470119 
L 598.404789 195.028752 
L 598.739743 195.827754 
L 598.924545 195.880314 
L 599.097797 195.696666 
L 599.363451 194.721657 
L 600.368313 190.623693 
L 600.668617 190.423768 
L 600.91117 190.421085 
L 601.107523 190.328317 
L 601.119073 190.339419 
L 601.257675 190.631731 
L 601.892932 192.114817 
L 602.031534 191.973087 
L 602.250987 191.805164 
L 602.45889 192.085569 
L 602.655242 192.171504 
L 602.793844 191.949126 
L 603.082597 190.931042 
L 604.734268 184.575052 
L 605.265575 183.429904 
L 605.588979 183.099748 
L 606.074085 182.103066 
L 606.593841 181.733077 
L 606.813294 181.869315 
L 607.113598 182.504121 
L 607.3215 182.679281 
L 607.517853 182.491757 
L 607.991409 181.991955 
L 608.372564 181.958924 
L 608.603567 181.351637 
L 609.504478 178.376504 
L 609.723931 178.312846 
L 609.978034 178.421785 
L 610.105085 178.345346 
L 610.405389 177.477238 
L 610.821194 176.186856 
L 611.606604 175.030544 
L 611.987759 174.779603 
L 612.241862 174.382024 
L 612.495965 173.602153 
L 612.819369 172.826841 
L 612.992621 172.707211 
L 613.154323 172.256675 
L 613.65098 169.790247 
L 614.852195 164.698823 
L 615.25645 164.185816 
L 615.429702 164.175393 
L 615.602954 164.565178 
L 616.376814 167.540602 
L 616.988972 169.460133 
L 617.416327 170.197815 
L 617.785931 171.260183 
L 618.155536 172.713703 
L 618.409639 172.768714 
L 618.686843 172.979978 
L 618.871645 172.981205 
L 619.044897 172.640266 
L 619.530003 171.030089 
L 620.280763 166.752399 
L 620.765869 163.23285 
L 621.297175 160.300521 
L 621.62058 158.625196 
L 621.990184 157.99579 
L 622.498391 157.397944 
L 622.660093 157.355403 
L 622.879545 157.400838 
L 623.052797 157.001198 
L 623.22605 156.169302 
L 623.711156 153.74207 
L 623.942159 153.481342 
L 624.103861 153.557443 
L 624.311763 153.899026 
L 625.120273 155.745584 
L 625.270425 155.67539 
L 625.859483 155.106331 
L 626.044285 154.66528 
L 626.48319 153.037472 
L 627.141549 150.925356 
L 627.372552 150.202695 
L 627.672855 149.514712 
L 627.926958 149.554748 
L 628.134861 149.564358 
L 628.261913 149.59688 
L 628.458265 150.062527 
L 629.058873 152.277187 
L 629.774982 155.064457 
L 630.260088 155.616361 
L 630.45644 155.806127 
L 630.675893 156.399642 
L 631.669205 159.979942 
L 632.188962 162.184103 
L 633.124524 165.600692 
L 633.309326 165.882405 
L 633.678931 167.332801 
L 634.060085 168.759215 
L 634.267988 169.194065 
L 634.695343 170.238667 
L 635.134249 170.492518 
L 635.399902 171.111043 
L 636.04671 172.505215 
L 636.173762 172.505026 
L 636.185312 172.491612 
L 636.439415 172.082004 
L 636.82057 171.646389 
L 637.120874 171.713729 
L 637.282576 171.703003 
L 637.467378 171.766658 
L 637.894733 172.310444 
L 638.218137 172.130971 
L 638.587742 171.777978 
L 638.749444 171.993183 
L 638.968897 172.671841 
L 639.99686 176.016013 
L 640.516616 177.242461 
L 640.574367 177.206191 
L 640.770719 177.127894 
L 640.782269 177.1409 
L 641.186525 177.498056 
L 641.382877 177.791915 
L 641.717831 178.290048 
L 641.937284 178.099609 
L 642.306889 177.145515 
L 642.722694 175.490029 
L 643.415702 172.709631 
L 644.074061 171.320199 
L 644.258863 171.40625 
L 644.455215 171.736558 
L 644.963422 172.896396 
L 645.090473 173.038768 
L 645.806582 174.303808 
L 646.072236 174.500202 
L 646.303239 175.245184 
L 646.638193 176.146733 
L 646.799895 176.186734 
L 647.111749 176.092011 
L 647.25035 176.237845 
L 647.492904 176.37237 
L 647.643055 176.157876 
L 647.862508 175.955918 
L 648.185912 176.141958 
L 648.855821 176.869233 
L 649.260076 177.279993 
L 649.779832 177.780181 
L 649.953084 177.576233 
L 650.184087 177.432482 
L 650.40354 177.451017 
L 651.015698 177.007764 
L 651.385302 177.191182 
L 651.778007 177.4473 
L 651.99746 177.612833 
L 652.136062 177.452434 
L 652.667368 176.594915 
L 653.060073 175.58804 
L 653.291076 175.064949 
L 653.799282 173.90056 
L 655.797457 173.801236 
L 657.125724 173.513586 
L 658.269188 173.038541 
L 659.331802 172.352294 
L 660.359765 171.416894 
L 661.387727 170.169784 
L 662.427241 168.546576 
L 663.489854 166.463561 
L 664.598668 163.780831 
L 665.742132 160.411779 
L 666.088636 159.26098 
L 666.088636 159.26098 
" clip-path="url(#p9c9e4ccfeb)" style="fill: none; stroke: #ff7f0e; stroke-opacity: 0.8; stroke-width: 1.5; stroke-linecap: square"/>
   </g>
   <g id="patch_3">
    <path d="M 26.925 244.078125 
L 26.925 22.318125 
" style="fill: none; stroke: #000000; stroke-width: 0.8; stroke-linejoin: miter; stroke-linecap: square"/>
   </g>
   <g id="patch_4">
    <path d="M 696.525 244.078125 
L 696.525 22.318125 
" style="fill: none; stroke: #000000; stroke-width: 0.8; stroke-linejoin: miter; stroke-linecap: square"/>
   </g>
   <g id="patch_5">
    <path d="M 26.925 244.078125 
L 696.525 244.078125 
" style="fill: none; stroke: #000000; stroke-width: 0.8; stroke-linejoin: miter; stroke-linecap: square"/>
   </g>
   <g id="patch_6">
    <path d="M 26.925 22.318125 
L 696.525 22.318125 
" style="fill: none; stroke: #000000; stroke-width: 0.8; stroke-linejoin: miter; stroke-linecap: square"/>
   </g>
   <g id="text_14">
    <!-- Real vs Synthetic (Smoothed: SavitzkyGolay) -->
    <g transform="translate(223.575 16.318125) scale(0.12 -0.12)">
     <defs>
      <path id="DejaVuSans-52" d="M 2841 2188 
Q 3044 2119 3236 1894 
Q 3428 1669 3622 1275 
L 4263 0 
L 3584 0 
L 2988 1197 
Q 2756 1666 2539 1819 
Q 2322 1972 1947 1972 
L 1259 1972 
L 1259 0 
L 628 0 
L 628 4666 
L 2053 4666 
Q 2853 4666 3247 4331 
Q 3641 3997 3641 3322 
Q 3641 2881 3436 2590 
Q 3231 2300 2841 2188 
z
M 1259 4147 
L 1259 2491 
L 2053 2491 
Q 2509 2491 2742 2702 
Q 2975 2913 2975 3322 
Q 2975 3731 2742 3939 
Q 2509 4147 2053 4147 
L 1259 4147 
z
" transform="scale(0.015625)"/>
      <path id="DejaVuSans-65" d="M 3597 1894 
L 3597 1613 
L 953 1613 
Q 991 1019 1311 708 
Q 1631 397 2203 397 
Q 2534 397 2845 478 
Q 3156 559 3463 722 
L 3463 178 
Q 3153 47 2828 -22 
Q 2503 -91 2169 -91 
Q 1331 -91 842 396 
Q 353 884 353 1716 
Q 353 2575 817 3079 
Q 1281 3584 2069 3584 
Q 2775 3584 3186 3129 
Q 3597 2675 3597 1894 
z
M 3022 2063 
Q 3016 2534 2758 2815 
Q 2500 3097 2075 3097 
Q 1594 3097 1305 2825 
Q 1016 2553 972 2059 
L 3022 2063 
z
" transform="scale(0.015625)"/>
      <path id="DejaVuSans-61" d="M 2194 1759 
Q 1497 1759 1228 1600 
Q 959 1441 959 1056 
Q 959 750 1161 570 
Q 1363 391 1709 391 
Q 2188 391 2477 730 
Q 2766 1069 2766 1631 
L 2766 1759 
L 2194 1759 
z
M 3341 1997 
L 3341 0 
L 2766 0 
L 2766 531 
Q 2569 213 2275 61 
Q 1981 -91 1556 -91 
Q 1019 -91 701 211 
Q 384 513 384 1019 
Q 384 1609 779 1909 
Q 1175 2209 1959 2209 
L 2766 2209 
L 2766 2266 
Q 2766 2663 2505 2880 
Q 2244 3097 1772 3097 
Q 1472 3097 1187 3025 
Q 903 2953 641 2809 
L 641 3341 
Q 956 3463 1253 3523 
Q 1550 3584 1831 3584 
Q 2591 3584 2966 3190 
Q 3341 2797 3341 1997 
z
" transform="scale(0.015625)"/>
      <path id="DejaVuSans-6c" d="M 603 4863 
L 1178 4863 
L 1178 0 
L 603 0 
L 603 4863 
z
" transform="scale(0.015625)"/>
      <path id="DejaVuSans-20" transform="scale(0.015625)"/>
      <path id="DejaVuSans-76" d="M 191 3500 
L 800 3500 
L 1894 563 
L 2988 3500 
L 3597 3500 
L 2284 0 
L 1503 0 
L 191 3500 
z
" transform="scale(0.015625)"/>
      <path id="DejaVuSans-73" d="M 2834 3397 
L 2834 2853 
Q 2591 2978 2328 3040 
Q 2066 3103 1784 3103 
Q 1356 3103 1142 2972 
Q 928 2841 928 2578 
Q 928 2378 1081 2264 
Q 1234 2150 1697 2047 
L 1894 2003 
Q 2506 1872 2764 1633 
Q 3022 1394 3022 966 
Q 3022 478 2636 193 
Q 2250 -91 1575 -91 
Q 1294 -91 989 -36 
Q 684 19 347 128 
L 347 722 
Q 666 556 975 473 
Q 1284 391 1588 391 
Q 1994 391 2212 530 
Q 2431 669 2431 922 
Q 2431 1156 2273 1281 
Q 2116 1406 1581 1522 
L 1381 1569 
Q 847 1681 609 1914 
Q 372 2147 372 2553 
Q 372 3047 722 3315 
Q 1072 3584 1716 3584 
Q 2034 3584 2315 3537 
Q 2597 3491 2834 3397 
z
" transform="scale(0.015625)"/>
      <path id="DejaVuSans-53" d="M 3425 4513 
L 3425 3897 
Q 3066 4069 2747 4153 
Q 2428 4238 2131 4238 
Q 1616 4238 1336 4038 
Q 1056 3838 1056 3469 
Q 1056 3159 1242 3001 
Q 1428 2844 1947 2747 
L 2328 2669 
Q 3034 2534 3370 2195 
Q 3706 1856 3706 1288 
Q 3706 609 3251 259 
Q 2797 -91 1919 -91 
Q 1588 -91 1214 -16 
Q 841 59 441 206 
L 441 856 
Q 825 641 1194 531 
Q 1563 422 1919 422 
Q 2459 422 2753 634 
Q 3047 847 3047 1241 
Q 3047 1584 2836 1778 
Q 2625 1972 2144 2069 
L 1759 2144 
Q 1053 2284 737 2584 
Q 422 2884 422 3419 
Q 422 4038 858 4394 
Q 1294 4750 2059 4750 
Q 2388 4750 2728 4690 
Q 3069 4631 3425 4513 
z
" transform="scale(0.015625)"/>
      <path id="DejaVuSans-79" d="M 2059 -325 
Q 1816 -950 1584 -1140 
Q 1353 -1331 966 -1331 
L 506 -1331 
L 506 -850 
L 844 -850 
Q 1081 -850 1212 -737 
Q 1344 -625 1503 -206 
L 1606 56 
L 191 3500 
L 800 3500 
L 1894 763 
L 2988 3500 
L 3597 3500 
L 2059 -325 
z
" transform="scale(0.015625)"/>
      <path id="DejaVuSans-6e" d="M 3513 2113 
L 3513 0 
L 2938 0 
L 2938 2094 
Q 2938 2591 2744 2837 
Q 2550 3084 2163 3084 
Q 1697 3084 1428 2787 
Q 1159 2491 1159 1978 
L 1159 0 
L 581 0 
L 581 3500 
L 1159 3500 
L 1159 2956 
Q 1366 3272 1645 3428 
Q 1925 3584 2291 3584 
Q 2894 3584 3203 3211 
Q 3513 2838 3513 2113 
z
" transform="scale(0.015625)"/>
      <path id="DejaVuSans-74" d="M 1172 4494 
L 1172 3500 
L 2356 3500 
L 2356 3053 
L 1172 3053 
L 1172 1153 
Q 1172 725 1289 603 
Q 1406 481 1766 481 
L 2356 481 
L 2356 0 
L 1766 0 
Q 1100 0 847 248 
Q 594 497 594 1153 
L 594 3053 
L 172 3053 
L 172 3500 
L 594 3500 
L 594 4494 
L 1172 4494 
z
" transform="scale(0.015625)"/>
      <path id="DejaVuSans-68" d="M 3513 2113 
L 3513 0 
L 2938 0 
L 2938 2094 
Q 2938 2591 2744 2837 
Q 2550 3084 2163 3084 
Q 1697 3084 1428 2787 
Q 1159 2491 1159 1978 
L 1159 0 
L 581 0 
L 581 4863 
L 1159 4863 
L 1159 2956 
Q 1366 3272 1645 3428 
Q 1925 3584 2291 3584 
Q 2894 3584 3203 3211 
Q 3513 2838 3513 2113 
z
" transform="scale(0.015625)"/>
      <path id="DejaVuSans-69" d="M 603 3500 
L 1178 3500 
L 1178 0 
L 603 0 
L 603 3500 
z
M 603 4863 
L 1178 4863 
L 1178 4134 
L 603 4134 
L 603 4863 
z
" transform="scale(0.015625)"/>
      <path id="DejaVuSans-63" d="M 3122 3366 
L 3122 2828 
Q 2878 2963 2633 3030 
Q 2388 3097 2138 3097 
Q 1578 3097 1268 2742 
Q 959 2388 959 1747 
Q 959 1106 1268 751 
Q 1578 397 2138 397 
Q 2388 397 2633 464 
Q 2878 531 3122 666 
L 3122 134 
Q 2881 22 2623 -34 
Q 2366 -91 2075 -91 
Q 1284 -91 818 406 
Q 353 903 353 1747 
Q 353 2603 823 3093 
Q 1294 3584 2113 3584 
Q 2378 3584 2631 3529 
Q 2884 3475 3122 3366 
z
" transform="scale(0.015625)"/>
      <path id="DejaVuSans-28" d="M 1984 4856 
Q 1566 4138 1362 3434 
Q 1159 2731 1159 2009 
Q 1159 1288 1364 580 
Q 1569 -128 1984 -844 
L 1484 -844 
Q 1016 -109 783 600 
Q 550 1309 550 2009 
Q 550 2706 781 3412 
Q 1013 4119 1484 4856 
L 1984 4856 
z
" transform="scale(0.015625)"/>
      <path id="DejaVuSans-6d" d="M 3328 2828 
Q 3544 3216 3844 3400 
Q 4144 3584 4550 3584 
Q 5097 3584 5394 3201 
Q 5691 2819 5691 2113 
L 5691 0 
L 5113 0 
L 5113 2094 
Q 5113 2597 4934 2840 
Q 4756 3084 4391 3084 
Q 3944 3084 3684 2787 
Q 3425 2491 3425 1978 
L 3425 0 
L 2847 0 
L 2847 2094 
Q 2847 2600 2669 2842 
Q 2491 3084 2119 3084 
Q 1678 3084 1418 2786 
Q 1159 2488 1159 1978 
L 1159 0 
L 581 0 
L 581 3500 
L 1159 3500 
L 1159 2956 
Q 1356 3278 1631 3431 
Q 1906 3584 2284 3584 
Q 2666 3584 2933 3390 
Q 3200 3197 3328 2828 
z
" transform="scale(0.015625)"/>
      <path id="DejaVuSans-6f" d="M 1959 3097 
Q 1497 3097 1228 2736 
Q 959 2375 959 1747 
Q 959 1119 1226 758 
Q 1494 397 1959 397 
Q 2419 397 2687 759 
Q 2956 1122 2956 1747 
Q 2956 2369 2687 2733 
Q 2419 3097 1959 3097 
z
M 1959 3584 
Q 2709 3584 3137 3096 
Q 3566 2609 3566 1747 
Q 3566 888 3137 398 
Q 2709 -91 1959 -91 
Q 1206 -91 779 398 
Q 353 888 353 1747 
Q 353 2609 779 3096 
Q 1206 3584 1959 3584 
z
" transform="scale(0.015625)"/>
      <path id="DejaVuSans-64" d="M 2906 2969 
L 2906 4863 
L 3481 4863 
L 3481 0 
L 2906 0 
L 2906 525 
Q 2725 213 2448 61 
Q 2172 -91 1784 -91 
Q 1150 -91 751 415 
Q 353 922 353 1747 
Q 353 2572 751 3078 
Q 1150 3584 1784 3584 
Q 2172 3584 2448 3432 
Q 2725 3281 2906 2969 
z
M 947 1747 
Q 947 1113 1208 752 
Q 1469 391 1925 391 
Q 2381 391 2643 752 
Q 2906 1113 2906 1747 
Q 2906 2381 2643 2742 
Q 2381 3103 1925 3103 
Q 1469 3103 1208 2742 
Q 947 2381 947 1747 
z
" transform="scale(0.015625)"/>
      <path id="DejaVuSans-3a" d="M 750 794 
L 1409 794 
L 1409 0 
L 750 0 
L 750 794 
z
M 750 3309 
L 1409 3309 
L 1409 2516 
L 750 2516 
L 750 3309 
z
" transform="scale(0.015625)"/>
      <path id="DejaVuSans-7a" d="M 353 3500 
L 3084 3500 
L 3084 2975 
L 922 459 
L 3084 459 
L 3084 0 
L 275 0 
L 275 525 
L 2438 3041 
L 353 3041 
L 353 3500 
z
" transform="scale(0.015625)"/>
      <path id="DejaVuSans-6b" d="M 581 4863 
L 1159 4863 
L 1159 1991 
L 2875 3500 
L 3609 3500 
L 1753 1863 
L 3688 0 
L 2938 0 
L 1159 1709 
L 1159 0 
L 581 0 
L 581 4863 
z
" transform="scale(0.015625)"/>
      <path id="DejaVuSans-2013" d="M 313 1978 
L 2888 1978 
L 2888 1528 
L 313 1528 
L 313 1978 
z
" transform="scale(0.015625)"/>
      <path id="DejaVuSans-47" d="M 3809 666 
L 3809 1919 
L 2778 1919 
L 2778 2438 
L 4434 2438 
L 4434 434 
Q 4069 175 3628 42 
Q 3188 -91 2688 -91 
Q 1594 -91 976 548 
Q 359 1188 359 2328 
Q 359 3472 976 4111 
Q 1594 4750 2688 4750 
Q 3144 4750 3555 4637 
Q 3966 4525 4313 4306 
L 4313 3634 
Q 3963 3931 3569 4081 
Q 3175 4231 2741 4231 
Q 1884 4231 1454 3753 
Q 1025 3275 1025 2328 
Q 1025 1384 1454 906 
Q 1884 428 2741 428 
Q 3075 428 3337 486 
Q 3600 544 3809 666 
z
" transform="scale(0.015625)"/>
      <path id="DejaVuSans-29" d="M 513 4856 
L 1013 4856 
Q 1481 4119 1714 3412 
Q 1947 2706 1947 2009 
Q 1947 1309 1714 600 
Q 1481 -109 1013 -844 
L 513 -844 
Q 928 -128 1133 580 
Q 1338 1288 1338 2009 
Q 1338 2731 1133 3434 
Q 928 4138 513 4856 
z
" transform="scale(0.015625)"/>
     </defs>
     <use xlink:href="#DejaVuSans-52"/>
     <use xlink:href="#DejaVuSans-65" transform="translate(64.982422 0)"/>
     <use xlink:href="#DejaVuSans-61" transform="translate(126.505859 0)"/>
     <use xlink:href="#DejaVuSans-6c" transform="translate(187.785156 0)"/>
     <use xlink:href="#DejaVuSans-20" transform="translate(215.568359 0)"/>
     <use xlink:href="#DejaVuSans-76" transform="translate(247.355469 0)"/>
     <use xlink:href="#DejaVuSans-73" transform="translate(306.535156 0)"/>
     <use xlink:href="#DejaVuSans-20" transform="translate(358.634766 0)"/>
     <use xlink:href="#DejaVuSans-53" transform="translate(390.421875 0)"/>
     <use xlink:href="#DejaVuSans-79" transform="translate(453.898438 0)"/>
     <use xlink:href="#DejaVuSans-6e" transform="translate(513.078125 0)"/>
     <use xlink:href="#DejaVuSans-74" transform="translate(576.457031 0)"/>
     <use xlink:href="#DejaVuSans-68" transform="translate(615.666016 0)"/>
     <use xlink:href="#DejaVuSans-65" transform="translate(679.044922 0)"/>
     <use xlink:href="#DejaVuSans-74" transform="translate(740.568359 0)"/>
     <use xlink:href="#DejaVuSans-69" transform="translate(779.777344 0)"/>
     <use xlink:href="#DejaVuSans-63" transform="translate(807.560547 0)"/>
     <use xlink:href="#DejaVuSans-20" transform="translate(862.541016 0)"/>
     <use xlink:href="#DejaVuSans-28" transform="translate(894.328125 0)"/>
     <use xlink:href="#DejaVuSans-53" transform="translate(933.341797 0)"/>
     <use xlink:href="#DejaVuSans-6d" transform="translate(996.818359 0)"/>
     <use xlink:href="#DejaVuSans-6f" transform="translate(1094.230469 0)"/>
     <use xlink:href="#DejaVuSans-6f" transform="translate(1155.412109 0)"/>
     <use xlink:href="#DejaVuSans-74" transform="translate(1216.59375 0)"/>
     <use xlink:href="#DejaVuSans-68" transform="translate(1255.802734 0)"/>
     <use xlink:href="#DejaVuSans-65" transform="translate(1319.181641 0)"/>
     <use xlink:href="#DejaVuSans-64" transform="translate(1380.705078 0)"/>
     <use xlink:href="#DejaVuSans-3a" transform="translate(1444.181641 0)"/>
     <use xlink:href="#DejaVuSans-20" transform="translate(1477.873047 0)"/>
     <use xlink:href="#DejaVuSans-53" transform="translate(1509.660156 0)"/>
     <use xlink:href="#DejaVuSans-61" transform="translate(1573.136719 0)"/>
     <use xlink:href="#DejaVuSans-76" transform="translate(1634.416016 0)"/>
     <use xlink:href="#DejaVuSans-69" transform="translate(1693.595703 0)"/>
     <use xlink:href="#DejaVuSans-74" transform="translate(1721.378906 0)"/>
     <use xlink:href="#DejaVuSans-7a" transform="translate(1760.587891 0)"/>
     <use xlink:href="#DejaVuSans-6b" transform="translate(1813.078125 0)"/>
     <use xlink:href="#DejaVuSans-79" transform="translate(1867.363281 0)"/>
     <use xlink:href="#DejaVuSans-2013" transform="translate(1926.542969 0)"/>
     <use xlink:href="#DejaVuSans-47" transform="translate(1976.542969 0)"/>
     <use xlink:href="#DejaVuSans-6f" transform="translate(2054.033203 0)"/>
     <use xlink:href="#DejaVuSans-6c" transform="translate(2115.214844 0)"/>
     <use xlink:href="#DejaVuSans-61" transform="translate(2142.998047 0)"/>
     <use xlink:href="#DejaVuSans-79" transform="translate(2204.277344 0)"/>
     <use xlink:href="#DejaVuSans-29" transform="translate(2263.457031 0)"/>
    </g>
   </g>
   <g id="legend_1">
    <g id="patch_7">
     <path d="M 610.3125 59.674375 
L 689.525 59.674375 
Q 691.525 59.674375 691.525 57.674375 
L 691.525 29.318125 
Q 691.525 27.318125 689.525 27.318125 
L 610.3125 27.318125 
Q 608.3125 27.318125 608.3125 29.318125 
L 608.3125 57.674375 
Q 608.3125 59.674375 610.3125 59.674375 
z
" style="fill: #ffffff; opacity: 0.8; stroke: #cccccc; stroke-linejoin: miter"/>
    </g>
    <g id="line2d_16">
     <path d="M 612.3125 35.416562 
L 622.3125 35.416562 
L 632.3125 35.416562 
" style="fill: none; stroke: #1f77b4; stroke-width: 1.5; stroke-linecap: square"/>
    </g>
    <g id="text_15">
     <!-- Real -->
     <g transform="translate(640.3125 38.916562) scale(0.1 -0.1)">
      <use xlink:href="#DejaVuSans-52"/>
      <use xlink:href="#DejaVuSans-65" transform="translate(64.982422 0)"/>
      <use xlink:href="#DejaVuSans-61" transform="translate(126.505859 0)"/>
      <use xlink:href="#DejaVuSans-6c" transform="translate(187.785156 0)"/>
     </g>
    </g>
    <g id="line2d_17">
     <path d="M 612.3125 50.094687 
L 622.3125 50.094687 
L 632.3125 50.094687 
" style="fill: none; stroke: #ff7f0e; stroke-opacity: 0.8; stroke-width: 1.5; stroke-linecap: square"/>
    </g>
    <g id="text_16">
     <!-- Synthetic -->
     <g transform="translate(640.3125 53.594687) scale(0.1 -0.1)">
      <use xlink:href="#DejaVuSans-53"/>
      <use xlink:href="#DejaVuSans-79" transform="translate(63.476562 0)"/>
      <use xlink:href="#DejaVuSans-6e" transform="translate(122.65625 0)"/>
      <use xlink:href="#DejaVuSans-74" transform="translate(186.035156 0)"/>
      <use xlink:href="#DejaVuSans-68" transform="translate(225.244141 0)"/>
      <use xlink:href="#DejaVuSans-65" transform="translate(288.623047 0)"/>
      <use xlink:href="#DejaVuSans-74" transform="translate(350.146484 0)"/>
      <use xlink:href="#DejaVuSans-69" transform="translate(389.355469 0)"/>
      <use xlink:href="#DejaVuSans-63" transform="translate(417.138672 0)"/>
     </g>
    </g>
   </g>
  </g>
 </g>
 <defs>
  <clipPath id="p9c9e4ccfeb">
   <rect x="26.925" y="22.318125" width="669.6" height="221.76"/>
  </clipPath>
 </defs>
</svg>
